M48
; DRILL file {KiCad 9.0.6-9.0.6~ubuntu24.04.1} date 2025-12-02T22:29:01-0600
; FORMAT={-:-/ absolute / metric / decimal}
; #@! TF.CreationDate,2025-12-02T22:29:01-06:00
; #@! TF.GenerationSoftware,Kicad,Pcbnew,9.0.6-9.0.6~ubuntu24.04.1
; #@! TF.FileFunction,MixedPlating,1,2
FMAT,2
METRIC
; #@! TA.AperFunction,Plated,PTH,ViaDrill
T1C0.300
; #@! TA.AperFunction,Plated,PTH,ComponentDrill
T2C0.600
; #@! TA.AperFunction,Plated,PTH,ComponentDrill
T3C1.000
; #@! TA.AperFunction,NonPlated,NPTH,ComponentDrill
T4C0.650
; #@! TA.AperFunction,NonPlated,NPTH,ComponentDrill
T5C2.200
%
G90
G05
T1
X76.8Y-69.8
X76.8Y-72.4
X76.8Y-76.8
X78.8Y-79.2
X79.6Y-58.2
X79.6Y-59.0
X80.4Y-58.2
X80.4Y-63.2
X81.4Y-73.8
X81.4Y-75.0
X81.6Y-63.2
X83.0Y-67.75
X83.0Y-69.6
X83.8Y-72.6
X84.2Y-63.4
X85.8Y-65.4
X86.6Y-65.4
X87.8Y-58.2
X88.8Y-70.8
X89.0Y-68.2
X89.4Y-67.2
X89.575Y-61.425
X90.0Y-67.6
X90.06Y-64.009
X90.8Y-63.6
X94.2Y-68.2
X94.8Y-76.8
X95.4Y-74.0
X98.4Y-66.8
X98.8Y-74.6
X99.4Y-59.0
X100.2Y-59.0
X103.345Y-71.145
X106.4Y-72.6
X107.2Y-72.6
X108.8Y-65.6
X109.6Y-69.4
T3
X73.66Y-62.8
X76.2Y-62.8
X78.2Y-56.2
X80.74Y-56.2
X80.86Y-82.6
X83.28Y-56.2
X83.4Y-82.6
X85.82Y-56.2
X85.94Y-82.6
X88.48Y-82.6
X89.72Y-56.2
X91.02Y-82.6
X92.26Y-56.2
X93.56Y-82.6
X94.8Y-56.2
X96.1Y-82.6
X97.34Y-56.2
X98.64Y-82.6
X101.18Y-82.6
X101.2Y-56.2
X103.72Y-82.6
X103.74Y-56.2
X106.26Y-82.6
X106.28Y-56.2
X108.8Y-82.6
X108.82Y-56.2
X111.34Y-82.6
T4
X112.485Y-66.91
X112.485Y-72.69
T5
X73.4Y-56.8
X73.4Y-82.8
X116.0Y-56.8
X116.0Y-82.8
T2
G00X111.435Y-65.48
M15
G01X112.535Y-65.48
M16
G05
G00X111.435Y-74.12
M15
G01X112.535Y-74.12
M16
G05
G00X115.765Y-65.48
M15
G01X116.565Y-65.48
M16
G05
G00X115.765Y-74.12
M15
G01X116.565Y-74.12
M16
G05
M30
