%TF.GenerationSoftware,KiCad,Pcbnew,9.0.6-9.0.6~ubuntu24.04.1*%
%TF.CreationDate,2025-12-02T22:29:15-06:00*%
%TF.ProjectId,Kicad_stm32_1st,4b696361-645f-4737-946d-33325f317374,rev?*%
%TF.SameCoordinates,Original*%
%TF.FileFunction,Soldermask,Top*%
%TF.FilePolarity,Negative*%
%FSLAX46Y46*%
G04 Gerber Fmt 4.6, Leading zero omitted, Abs format (unit mm)*
G04 Created by KiCad (PCBNEW 9.0.6-9.0.6~ubuntu24.04.1) date 2025-12-02 22:29:15*
%MOMM*%
%LPD*%
G01*
G04 APERTURE LIST*
G04 Aperture macros list*
%AMRoundRect*
0 Rectangle with rounded corners*
0 $1 Rounding radius*
0 $2 $3 $4 $5 $6 $7 $8 $9 X,Y pos of 4 corners*
0 Add a 4 corners polygon primitive as box body*
4,1,4,$2,$3,$4,$5,$6,$7,$8,$9,$2,$3,0*
0 Add four circle primitives for the rounded corners*
1,1,$1+$1,$2,$3*
1,1,$1+$1,$4,$5*
1,1,$1+$1,$6,$7*
1,1,$1+$1,$8,$9*
0 Add four rect primitives between the rounded corners*
20,1,$1+$1,$2,$3,$4,$5,0*
20,1,$1+$1,$4,$5,$6,$7,0*
20,1,$1+$1,$6,$7,$8,$9,0*
20,1,$1+$1,$8,$9,$2,$3,0*%
G04 Aperture macros list end*
%ADD10RoundRect,0.135000X0.135000X0.185000X-0.135000X0.185000X-0.135000X-0.185000X0.135000X-0.185000X0*%
%ADD11RoundRect,0.135000X-0.135000X-0.185000X0.135000X-0.185000X0.135000X0.185000X-0.135000X0.185000X0*%
%ADD12RoundRect,0.140000X-0.140000X-0.170000X0.140000X-0.170000X0.140000X0.170000X-0.140000X0.170000X0*%
%ADD13RoundRect,0.140000X-0.170000X0.140000X-0.170000X-0.140000X0.170000X-0.140000X0.170000X0.140000X0*%
%ADD14RoundRect,0.135000X-0.185000X0.135000X-0.185000X-0.135000X0.185000X-0.135000X0.185000X0.135000X0*%
%ADD15RoundRect,0.140000X0.140000X0.170000X-0.140000X0.170000X-0.140000X-0.170000X0.140000X-0.170000X0*%
%ADD16RoundRect,0.218750X-0.256250X0.218750X-0.256250X-0.218750X0.256250X-0.218750X0.256250X0.218750X0*%
%ADD17RoundRect,0.140000X0.170000X-0.140000X0.170000X0.140000X-0.170000X0.140000X-0.170000X-0.140000X0*%
%ADD18RoundRect,0.225000X-0.225000X-0.250000X0.225000X-0.250000X0.225000X0.250000X-0.225000X0.250000X0*%
%ADD19RoundRect,0.150000X0.350000X-0.150000X0.350000X0.150000X-0.350000X0.150000X-0.350000X-0.150000X0*%
%ADD20RoundRect,0.062500X0.512500X-0.062500X0.512500X0.062500X-0.512500X0.062500X-0.512500X-0.062500X0*%
%ADD21C,0.650000*%
%ADD22RoundRect,0.150000X0.425000X-0.150000X0.425000X0.150000X-0.425000X0.150000X-0.425000X-0.150000X0*%
%ADD23RoundRect,0.075000X0.500000X-0.075000X0.500000X0.075000X-0.500000X0.075000X-0.500000X-0.075000X0*%
%ADD24O,2.100000X1.000000*%
%ADD25O,1.800000X1.000000*%
%ADD26RoundRect,0.218750X0.256250X-0.218750X0.256250X0.218750X-0.256250X0.218750X-0.256250X-0.218750X0*%
%ADD27RoundRect,0.218750X0.218750X0.256250X-0.218750X0.256250X-0.218750X-0.256250X0.218750X-0.256250X0*%
%ADD28C,2.200000*%
%ADD29RoundRect,0.075000X-0.075000X-0.662500X0.075000X-0.662500X0.075000X0.662500X-0.075000X0.662500X0*%
%ADD30RoundRect,0.075000X-0.662500X-0.075000X0.662500X-0.075000X0.662500X0.075000X-0.662500X0.075000X0*%
%ADD31RoundRect,0.150000X0.150000X-0.825000X0.150000X0.825000X-0.150000X0.825000X-0.150000X-0.825000X0*%
%ADD32R,1.700000X1.700000*%
%ADD33C,1.700000*%
%ADD34R,0.900000X1.700000*%
%ADD35R,0.800000X1.100000*%
%ADD36R,1.000000X0.900000*%
%ADD37RoundRect,0.250000X-0.350000X0.450000X-0.350000X-0.450000X0.350000X-0.450000X0.350000X0.450000X0*%
%ADD38RoundRect,0.150000X0.512500X0.150000X-0.512500X0.150000X-0.512500X-0.150000X0.512500X-0.150000X0*%
G04 APERTURE END LIST*
D10*
%TO.C,R4*%
X115400000Y-63400000D03*
X114380000Y-63400000D03*
%TD*%
D11*
%TO.C,R6*%
X108000000Y-79800000D03*
X109020000Y-79800000D03*
%TD*%
D10*
%TO.C,R7*%
X106710000Y-79800000D03*
X105690000Y-79800000D03*
%TD*%
%TO.C,R3*%
X115000000Y-76200000D03*
X113980000Y-76200000D03*
%TD*%
%TO.C,R5*%
X107620000Y-73800000D03*
X106600000Y-73800000D03*
%TD*%
D12*
%TO.C,C13*%
X104320000Y-73800000D03*
X105280000Y-73800000D03*
%TD*%
%TO.C,C12*%
X104320000Y-72800000D03*
X105280000Y-72800000D03*
%TD*%
D13*
%TO.C,C3*%
X97400000Y-66640000D03*
X97400000Y-67600000D03*
%TD*%
D14*
%TO.C,R9*%
X97800000Y-73600000D03*
X97800000Y-74620000D03*
%TD*%
D15*
%TO.C,C2*%
X95080000Y-76000000D03*
X94120000Y-76000000D03*
%TD*%
D12*
%TO.C,C4*%
X88320000Y-64000000D03*
X89280000Y-64000000D03*
%TD*%
%TO.C,C15*%
X85840000Y-60600000D03*
X86800000Y-60600000D03*
%TD*%
%TO.C,C14*%
X85840000Y-59200000D03*
X86800000Y-59200000D03*
%TD*%
D11*
%TO.C,R8*%
X75490000Y-60200000D03*
X76510000Y-60200000D03*
%TD*%
D15*
%TO.C,C9*%
X79680000Y-78200000D03*
X78720000Y-78200000D03*
%TD*%
D10*
%TO.C,R1*%
X82800000Y-76800000D03*
X81780000Y-76800000D03*
%TD*%
D15*
%TO.C,C8*%
X83200000Y-75000000D03*
X82240000Y-75000000D03*
%TD*%
%TO.C,C7*%
X83200000Y-73800000D03*
X82240000Y-73800000D03*
%TD*%
D16*
%TO.C,FB1*%
X84520000Y-74000000D03*
X84520000Y-75575000D03*
%TD*%
D17*
%TO.C,C6*%
X84600000Y-71880000D03*
X84600000Y-70920000D03*
%TD*%
%TO.C,C11*%
X82000000Y-70560000D03*
X82000000Y-69600000D03*
%TD*%
%TO.C,C10*%
X82000000Y-68400000D03*
X82000000Y-67440000D03*
%TD*%
%TO.C,C1*%
X85400000Y-67200000D03*
X85400000Y-66240000D03*
%TD*%
D18*
%TO.C,C5*%
X88025000Y-62400000D03*
X89575000Y-62400000D03*
%TD*%
D10*
%TO.C,R2*%
X97100000Y-63400000D03*
X96080000Y-63400000D03*
%TD*%
D19*
%TO.C,J1*%
X111300000Y-66600000D03*
X111300000Y-73000000D03*
X111300000Y-73000000D03*
X111300000Y-66600000D03*
D20*
X111410000Y-70550000D03*
D21*
X112485000Y-72690000D03*
X112485000Y-66910000D03*
D22*
X111410000Y-72200000D03*
D23*
X111410000Y-71050000D03*
X111410000Y-70050000D03*
X111410000Y-69550000D03*
X111410000Y-68550000D03*
D22*
X111410000Y-67400000D03*
X111410000Y-67400000D03*
D23*
X111410000Y-68050000D03*
X111410000Y-69050000D03*
X111410000Y-71550000D03*
D22*
X111410000Y-72200000D03*
D24*
X111985000Y-74120000D03*
D25*
X116165000Y-74120000D03*
D24*
X111985000Y-65480000D03*
D25*
X116165000Y-65480000D03*
%TD*%
D26*
%TO.C,D2*%
X97800000Y-72200000D03*
X97800000Y-70625000D03*
%TD*%
D27*
%TO.C,PWR*%
X105800000Y-75400000D03*
X107375000Y-75400000D03*
%TD*%
D28*
%TO.C,H1*%
X73400000Y-82800000D03*
%TD*%
%TO.C,H2*%
X73400000Y-56800000D03*
%TD*%
%TO.C,H3*%
X116000000Y-56800000D03*
%TD*%
%TO.C,H4*%
X116000000Y-82800000D03*
%TD*%
D29*
%TO.C,U2*%
X88650000Y-65837500D03*
X89150000Y-65837500D03*
X89650000Y-65837500D03*
X90150000Y-65837500D03*
X90650000Y-65837500D03*
X91150000Y-65837500D03*
X91650000Y-65837500D03*
X92150000Y-65837500D03*
X92650000Y-65837500D03*
X93150000Y-65837500D03*
X93650000Y-65837500D03*
X94150000Y-65837500D03*
D30*
X95562500Y-67250000D03*
X95562500Y-67750000D03*
X95562500Y-68250000D03*
X95562500Y-68750000D03*
X95562500Y-69250000D03*
X95562500Y-69750000D03*
X95562500Y-70250000D03*
X95562500Y-70750000D03*
X95562500Y-71250000D03*
X95562500Y-71750000D03*
X95562500Y-72250000D03*
X95562500Y-72750000D03*
D29*
X94150000Y-74162500D03*
X93650000Y-74162500D03*
X93150000Y-74162500D03*
X92650000Y-74162500D03*
X92150000Y-74162500D03*
X91650000Y-74162500D03*
X91150000Y-74162500D03*
X90650000Y-74162500D03*
X90150000Y-74162500D03*
X89650000Y-74162500D03*
X89150000Y-74162500D03*
X88650000Y-74162500D03*
D30*
X87237500Y-72750000D03*
X87237500Y-72250000D03*
X87237500Y-71750000D03*
X87237500Y-71250000D03*
X87237500Y-70750000D03*
X87237500Y-70250000D03*
X87237500Y-69750000D03*
X87237500Y-69250000D03*
X87237500Y-68750000D03*
X87237500Y-68250000D03*
X87237500Y-67750000D03*
X87237500Y-67250000D03*
%TD*%
D31*
%TO.C,U4*%
X80390000Y-59800000D03*
X81660000Y-59800000D03*
X82930000Y-59800000D03*
X84200000Y-59800000D03*
X84200000Y-64750000D03*
X82930000Y-64750000D03*
X81660000Y-64750000D03*
X80390000Y-64750000D03*
%TD*%
D32*
%TO.C,J5*%
X80860000Y-82600000D03*
D33*
X83400000Y-82600000D03*
X85940000Y-82600000D03*
X88480000Y-82600000D03*
X91020000Y-82600000D03*
X93560000Y-82600000D03*
X96100000Y-82600000D03*
X98640000Y-82600000D03*
X101180000Y-82600000D03*
X103720000Y-82600000D03*
X106260000Y-82600000D03*
X108800000Y-82600000D03*
X111340000Y-82600000D03*
%TD*%
D34*
%TO.C,BOOT*%
X99700000Y-61200000D03*
X96300000Y-61200000D03*
D35*
X98000000Y-59560000D03*
%TD*%
D32*
%TO.C,UART*%
X97340000Y-56200000D03*
D33*
X94800000Y-56200000D03*
X92260000Y-56200000D03*
X89720000Y-56200000D03*
%TD*%
D36*
%TO.C,RST*%
X78400000Y-76650000D03*
X78400000Y-72550000D03*
X80000000Y-76650000D03*
X80000000Y-72550000D03*
%TD*%
D32*
%TO.C,120R*%
X76200000Y-62800000D03*
D33*
X73660000Y-62800000D03*
%TD*%
D37*
%TO.C,Y1*%
X78500000Y-67600000D03*
X78500000Y-69800000D03*
X80200000Y-69800000D03*
X80200000Y-67600000D03*
%TD*%
D38*
%TO.C,U1*%
X108475000Y-70350000D03*
X108475000Y-69400000D03*
X108475000Y-68450000D03*
X106200000Y-68450000D03*
X106200000Y-69400000D03*
X106200000Y-70350000D03*
%TD*%
D32*
%TO.C,J2*%
X101200000Y-56200000D03*
D33*
X103740000Y-56200000D03*
X106280000Y-56200000D03*
X108820000Y-56200000D03*
%TD*%
D32*
%TO.C,CAN*%
X78200000Y-56200000D03*
D33*
X80740000Y-56200000D03*
X83280000Y-56200000D03*
X85820000Y-56200000D03*
%TD*%
D38*
%TO.C,U3*%
X102137500Y-72750000D03*
X102137500Y-71800000D03*
X102137500Y-70850000D03*
X99862500Y-70850000D03*
X99862500Y-72750000D03*
%TD*%
M02*
