%TF.GenerationSoftware,KiCad,Pcbnew,9.0.6-9.0.6~ubuntu24.04.1*%
%TF.CreationDate,2025-12-02T22:29:15-06:00*%
%TF.ProjectId,Kicad_stm32_1st,4b696361-645f-4737-946d-33325f317374,rev?*%
%TF.SameCoordinates,Original*%
%TF.FileFunction,Copper,L1,Top*%
%TF.FilePolarity,Positive*%
%FSLAX46Y46*%
G04 Gerber Fmt 4.6, Leading zero omitted, Abs format (unit mm)*
G04 Created by KiCad (PCBNEW 9.0.6-9.0.6~ubuntu24.04.1) date 2025-12-02 22:29:15*
%MOMM*%
%LPD*%
G01*
G04 APERTURE LIST*
G04 Aperture macros list*
%AMRoundRect*
0 Rectangle with rounded corners*
0 $1 Rounding radius*
0 $2 $3 $4 $5 $6 $7 $8 $9 X,Y pos of 4 corners*
0 Add a 4 corners polygon primitive as box body*
4,1,4,$2,$3,$4,$5,$6,$7,$8,$9,$2,$3,0*
0 Add four circle primitives for the rounded corners*
1,1,$1+$1,$2,$3*
1,1,$1+$1,$4,$5*
1,1,$1+$1,$6,$7*
1,1,$1+$1,$8,$9*
0 Add four rect primitives between the rounded corners*
20,1,$1+$1,$2,$3,$4,$5,0*
20,1,$1+$1,$4,$5,$6,$7,0*
20,1,$1+$1,$6,$7,$8,$9,0*
20,1,$1+$1,$8,$9,$2,$3,0*%
G04 Aperture macros list end*
%TA.AperFunction,SMDPad,CuDef*%
%ADD10RoundRect,0.135000X0.135000X0.185000X-0.135000X0.185000X-0.135000X-0.185000X0.135000X-0.185000X0*%
%TD*%
%TA.AperFunction,SMDPad,CuDef*%
%ADD11RoundRect,0.135000X-0.135000X-0.185000X0.135000X-0.185000X0.135000X0.185000X-0.135000X0.185000X0*%
%TD*%
%TA.AperFunction,SMDPad,CuDef*%
%ADD12RoundRect,0.140000X-0.140000X-0.170000X0.140000X-0.170000X0.140000X0.170000X-0.140000X0.170000X0*%
%TD*%
%TA.AperFunction,SMDPad,CuDef*%
%ADD13RoundRect,0.140000X-0.170000X0.140000X-0.170000X-0.140000X0.170000X-0.140000X0.170000X0.140000X0*%
%TD*%
%TA.AperFunction,SMDPad,CuDef*%
%ADD14RoundRect,0.135000X-0.185000X0.135000X-0.185000X-0.135000X0.185000X-0.135000X0.185000X0.135000X0*%
%TD*%
%TA.AperFunction,SMDPad,CuDef*%
%ADD15RoundRect,0.140000X0.140000X0.170000X-0.140000X0.170000X-0.140000X-0.170000X0.140000X-0.170000X0*%
%TD*%
%TA.AperFunction,SMDPad,CuDef*%
%ADD16RoundRect,0.218750X-0.256250X0.218750X-0.256250X-0.218750X0.256250X-0.218750X0.256250X0.218750X0*%
%TD*%
%TA.AperFunction,SMDPad,CuDef*%
%ADD17RoundRect,0.140000X0.170000X-0.140000X0.170000X0.140000X-0.170000X0.140000X-0.170000X-0.140000X0*%
%TD*%
%TA.AperFunction,SMDPad,CuDef*%
%ADD18RoundRect,0.225000X-0.225000X-0.250000X0.225000X-0.250000X0.225000X0.250000X-0.225000X0.250000X0*%
%TD*%
%TA.AperFunction,SMDPad,CuDef*%
%ADD19RoundRect,0.150000X0.350000X-0.150000X0.350000X0.150000X-0.350000X0.150000X-0.350000X-0.150000X0*%
%TD*%
%TA.AperFunction,SMDPad,CuDef*%
%ADD20RoundRect,0.062500X0.512500X-0.062500X0.512500X0.062500X-0.512500X0.062500X-0.512500X-0.062500X0*%
%TD*%
%TA.AperFunction,SMDPad,CuDef*%
%ADD21RoundRect,0.150000X0.425000X-0.150000X0.425000X0.150000X-0.425000X0.150000X-0.425000X-0.150000X0*%
%TD*%
%TA.AperFunction,SMDPad,CuDef*%
%ADD22RoundRect,0.075000X0.500000X-0.075000X0.500000X0.075000X-0.500000X0.075000X-0.500000X-0.075000X0*%
%TD*%
%TA.AperFunction,HeatsinkPad*%
%ADD23O,2.100000X1.000000*%
%TD*%
%TA.AperFunction,HeatsinkPad*%
%ADD24O,1.800000X1.000000*%
%TD*%
%TA.AperFunction,SMDPad,CuDef*%
%ADD25RoundRect,0.218750X0.256250X-0.218750X0.256250X0.218750X-0.256250X0.218750X-0.256250X-0.218750X0*%
%TD*%
%TA.AperFunction,SMDPad,CuDef*%
%ADD26RoundRect,0.218750X0.218750X0.256250X-0.218750X0.256250X-0.218750X-0.256250X0.218750X-0.256250X0*%
%TD*%
%TA.AperFunction,SMDPad,CuDef*%
%ADD27RoundRect,0.075000X-0.075000X-0.662500X0.075000X-0.662500X0.075000X0.662500X-0.075000X0.662500X0*%
%TD*%
%TA.AperFunction,SMDPad,CuDef*%
%ADD28RoundRect,0.075000X-0.662500X-0.075000X0.662500X-0.075000X0.662500X0.075000X-0.662500X0.075000X0*%
%TD*%
%TA.AperFunction,SMDPad,CuDef*%
%ADD29RoundRect,0.150000X0.150000X-0.825000X0.150000X0.825000X-0.150000X0.825000X-0.150000X-0.825000X0*%
%TD*%
%TA.AperFunction,ComponentPad*%
%ADD30R,1.700000X1.700000*%
%TD*%
%TA.AperFunction,ComponentPad*%
%ADD31C,1.700000*%
%TD*%
%TA.AperFunction,SMDPad,CuDef*%
%ADD32R,0.900000X1.700000*%
%TD*%
%TA.AperFunction,SMDPad,CuDef*%
%ADD33R,0.800000X1.100000*%
%TD*%
%TA.AperFunction,SMDPad,CuDef*%
%ADD34R,1.000000X0.900000*%
%TD*%
%TA.AperFunction,SMDPad,CuDef*%
%ADD35RoundRect,0.250000X-0.350000X0.450000X-0.350000X-0.450000X0.350000X-0.450000X0.350000X0.450000X0*%
%TD*%
%TA.AperFunction,SMDPad,CuDef*%
%ADD36RoundRect,0.150000X0.512500X0.150000X-0.512500X0.150000X-0.512500X-0.150000X0.512500X-0.150000X0*%
%TD*%
%TA.AperFunction,ViaPad*%
%ADD37C,0.600000*%
%TD*%
%TA.AperFunction,ViaPad*%
%ADD38C,0.700000*%
%TD*%
%TA.AperFunction,Conductor*%
%ADD39C,0.200000*%
%TD*%
%TA.AperFunction,Conductor*%
%ADD40C,0.300000*%
%TD*%
%TA.AperFunction,Conductor*%
%ADD41C,0.500000*%
%TD*%
G04 APERTURE END LIST*
D10*
%TO.P,R4,1*%
%TO.N,gnd*%
X115400000Y-63400000D03*
%TO.P,R4,2*%
%TO.N,Net-(J1-CC2)*%
X114380000Y-63400000D03*
%TD*%
D11*
%TO.P,R6,1*%
%TO.N,/I2C2_SDA*%
X108000000Y-79800000D03*
%TO.P,R6,2*%
%TO.N,+3.3V*%
X109020000Y-79800000D03*
%TD*%
D10*
%TO.P,R7,1*%
%TO.N,/I2C2_SCL*%
X106710000Y-79800000D03*
%TO.P,R7,2*%
%TO.N,+3.3V*%
X105690000Y-79800000D03*
%TD*%
%TO.P,R3,1*%
%TO.N,gnd*%
X115000000Y-76200000D03*
%TO.P,R3,2*%
%TO.N,Net-(J1-CC1)*%
X113980000Y-76200000D03*
%TD*%
%TO.P,R5,1*%
%TO.N,/PWR_LED_K*%
X107620000Y-73800000D03*
%TO.P,R5,2*%
%TO.N,gnd*%
X106600000Y-73800000D03*
%TD*%
D12*
%TO.P,C13,1*%
%TO.N,+3.3V*%
X104320000Y-73800000D03*
%TO.P,C13,2*%
%TO.N,gnd*%
X105280000Y-73800000D03*
%TD*%
%TO.P,C12,1*%
%TO.N,VBUS*%
X104320000Y-72800000D03*
%TO.P,C12,2*%
%TO.N,gnd*%
X105280000Y-72800000D03*
%TD*%
D13*
%TO.P,C3,1*%
%TO.N,+3.3V*%
X97400000Y-66640000D03*
%TO.P,C3,2*%
%TO.N,gnd*%
X97400000Y-67600000D03*
%TD*%
D14*
%TO.P,R9,1*%
%TO.N,Net-(D2-K)*%
X97800000Y-73600000D03*
%TO.P,R9,2*%
%TO.N,gnd*%
X97800000Y-74620000D03*
%TD*%
D15*
%TO.P,C2,1*%
%TO.N,+3.3V*%
X95080000Y-76000000D03*
%TO.P,C2,2*%
%TO.N,gnd*%
X94120000Y-76000000D03*
%TD*%
D12*
%TO.P,C4,1*%
%TO.N,+3.3V*%
X88320000Y-64000000D03*
%TO.P,C4,2*%
%TO.N,gnd*%
X89280000Y-64000000D03*
%TD*%
%TO.P,C15,1*%
%TO.N,VBUS*%
X85840000Y-60600000D03*
%TO.P,C15,2*%
%TO.N,gnd*%
X86800000Y-60600000D03*
%TD*%
%TO.P,C14,1*%
%TO.N,VBUS*%
X85840000Y-59200000D03*
%TO.P,C14,2*%
%TO.N,gnd*%
X86800000Y-59200000D03*
%TD*%
D11*
%TO.P,R8,1*%
%TO.N,Net-(JP1-B)*%
X75490000Y-60200000D03*
%TO.P,R8,2*%
%TO.N,/CANH*%
X76510000Y-60200000D03*
%TD*%
D15*
%TO.P,C9,1*%
%TO.N,/NRST*%
X79680000Y-78200000D03*
%TO.P,C9,2*%
%TO.N,gnd*%
X78720000Y-78200000D03*
%TD*%
D10*
%TO.P,R1,1*%
%TO.N,+3.3V*%
X82800000Y-76800000D03*
%TO.P,R1,2*%
%TO.N,/NRST*%
X81780000Y-76800000D03*
%TD*%
D15*
%TO.P,C8,1*%
%TO.N,+3.3V*%
X83200000Y-75000000D03*
%TO.P,C8,2*%
%TO.N,gnd*%
X82240000Y-75000000D03*
%TD*%
%TO.P,C7,1*%
%TO.N,+3.3VA*%
X83200000Y-73800000D03*
%TO.P,C7,2*%
%TO.N,gnd*%
X82240000Y-73800000D03*
%TD*%
D16*
%TO.P,FB1,1*%
%TO.N,+3.3VA*%
X84520000Y-74000000D03*
%TO.P,FB1,2*%
%TO.N,+3.3V*%
X84520000Y-75575000D03*
%TD*%
D17*
%TO.P,C6,1*%
%TO.N,+3.3VA*%
X84600000Y-71880000D03*
%TO.P,C6,2*%
%TO.N,gnd*%
X84600000Y-70920000D03*
%TD*%
%TO.P,C11,1*%
%TO.N,/HSE_OUT*%
X82000000Y-70560000D03*
%TO.P,C11,2*%
%TO.N,gnd*%
X82000000Y-69600000D03*
%TD*%
%TO.P,C10,1*%
%TO.N,/HSE_IN*%
X82000000Y-68400000D03*
%TO.P,C10,2*%
%TO.N,gnd*%
X82000000Y-67440000D03*
%TD*%
%TO.P,C1,1*%
%TO.N,+3.3V*%
X85400000Y-67200000D03*
%TO.P,C1,2*%
%TO.N,gnd*%
X85400000Y-66240000D03*
%TD*%
D18*
%TO.P,C5,1*%
%TO.N,+3.3V*%
X88025000Y-62400000D03*
%TO.P,C5,2*%
%TO.N,gnd*%
X89575000Y-62400000D03*
%TD*%
D10*
%TO.P,R2,1*%
%TO.N,/SW_BOOT0*%
X97100000Y-63400000D03*
%TO.P,R2,2*%
%TO.N,/BOOT0*%
X96080000Y-63400000D03*
%TD*%
D19*
%TO.P,J1,B1,GND*%
%TO.N,gnd*%
X111300000Y-66600000D03*
%TO.P,J1,B12,GND*%
X111300000Y-73000000D03*
%TO.P,J1,A1,GND*%
X111300000Y-73000000D03*
%TO.P,J1,A12,GND*%
X111300000Y-66600000D03*
D20*
%TO.P,J1,B7,D-*%
%TO.N,Net-(J1-D--PadA7)*%
X111410000Y-70550000D03*
D21*
%TO.P,J1,A4,VBUS*%
%TO.N,VBUS*%
X111410000Y-72200000D03*
D22*
%TO.P,J1,A5,CC1*%
%TO.N,Net-(J1-CC1)*%
X111410000Y-71050000D03*
%TO.P,J1,A6,D+*%
%TO.N,Net-(J1-D+-PadA6)*%
X111410000Y-70050000D03*
%TO.P,J1,A7,D-*%
%TO.N,Net-(J1-D--PadA7)*%
X111410000Y-69550000D03*
%TO.P,J1,A8*%
%TO.N,N/C*%
X111410000Y-68550000D03*
D21*
%TO.P,J1,A9,VBUS*%
%TO.N,VBUS*%
X111410000Y-67400000D03*
%TO.P,J1,B4,VBUS*%
X111410000Y-67400000D03*
D22*
%TO.P,J1,B5,CC2*%
%TO.N,Net-(J1-CC2)*%
X111410000Y-68050000D03*
%TO.P,J1,B6,D+*%
%TO.N,Net-(J1-D+-PadA6)*%
X111410000Y-69050000D03*
%TO.P,J1,B8*%
%TO.N,N/C*%
X111410000Y-71550000D03*
D21*
%TO.P,J1,B9,VBUS*%
%TO.N,VBUS*%
X111410000Y-72200000D03*
D23*
%TO.P,J1,S1,SHIELD*%
%TO.N,gnd*%
X111985000Y-74120000D03*
D24*
X116165000Y-74120000D03*
D23*
X111985000Y-65480000D03*
D24*
X116165000Y-65480000D03*
%TD*%
D25*
%TO.P,D2,1,K*%
%TO.N,Net-(D2-K)*%
X97800000Y-72200000D03*
%TO.P,D2,2,A*%
%TO.N,Net-(D2-A)*%
X97800000Y-70625000D03*
%TD*%
D26*
%TO.P,PWR,2,A*%
%TO.N,+3.3V*%
X105800000Y-75400000D03*
%TO.P,PWR,1,K*%
%TO.N,/PWR_LED_K*%
X107375000Y-75400000D03*
%TD*%
D27*
%TO.P,U2,48,VDD*%
%TO.N,+3.3V*%
X88650000Y-65837500D03*
%TO.P,U2,47,VSS*%
%TO.N,gnd*%
X89150000Y-65837500D03*
%TO.P,U2,46,PB9*%
%TO.N,/CAN_TX*%
X89650000Y-65837500D03*
%TO.P,U2,45,PB8*%
%TO.N,/CAN_RX*%
X90150000Y-65837500D03*
%TO.P,U2,44,BOOT0*%
%TO.N,/BOOT0*%
X90650000Y-65837500D03*
%TO.P,U2,43,PB7*%
%TO.N,/USART1_RX*%
X91150000Y-65837500D03*
%TO.P,U2,42,PB6*%
%TO.N,/USART1_TX*%
X91650000Y-65837500D03*
%TO.P,U2,41,PB5*%
%TO.N,unconnected-(U2-PB5-Pad41)*%
X92150000Y-65837500D03*
%TO.P,U2,40,PB4*%
%TO.N,unconnected-(U2-PB4-Pad40)*%
X92650000Y-65837500D03*
%TO.P,U2,39,PB3*%
%TO.N,unconnected-(U2-PB3-Pad39)*%
X93150000Y-65837500D03*
%TO.P,U2,38,PA15*%
%TO.N,unconnected-(U2-PA15-Pad38)*%
X93650000Y-65837500D03*
%TO.P,U2,37,PA14*%
%TO.N,/SWCLK*%
X94150000Y-65837500D03*
D28*
%TO.P,U2,36,VDD*%
%TO.N,+3.3V*%
X95562500Y-67250000D03*
%TO.P,U2,35,VSS*%
%TO.N,gnd*%
X95562500Y-67750000D03*
%TO.P,U2,34,PA13*%
%TO.N,/SWDIO*%
X95562500Y-68250000D03*
%TO.P,U2,33,PA12*%
%TO.N,/USB_D+*%
X95562500Y-68750000D03*
%TO.P,U2,32,PA11*%
%TO.N,/USB_D-*%
X95562500Y-69250000D03*
%TO.P,U2,31,PA10*%
%TO.N,unconnected-(U2-PA10-Pad31)*%
X95562500Y-69750000D03*
%TO.P,U2,30,PA9*%
%TO.N,unconnected-(U2-PA9-Pad30)*%
X95562500Y-70250000D03*
%TO.P,U2,29,PA8*%
%TO.N,unconnected-(U2-PA8-Pad29)*%
X95562500Y-70750000D03*
%TO.P,U2,28,PB15*%
%TO.N,Net-(D2-A)*%
X95562500Y-71250000D03*
%TO.P,U2,27,PB14*%
%TO.N,unconnected-(U2-PB14-Pad27)*%
X95562500Y-71750000D03*
%TO.P,U2,26,PB13*%
%TO.N,unconnected-(U2-PB13-Pad26)*%
X95562500Y-72250000D03*
%TO.P,U2,25,PB12*%
%TO.N,unconnected-(U2-PB12-Pad25)*%
X95562500Y-72750000D03*
D27*
%TO.P,U2,24,VDD*%
%TO.N,+3.3V*%
X94150000Y-74162500D03*
%TO.P,U2,23,VSS*%
%TO.N,gnd*%
X93650000Y-74162500D03*
%TO.P,U2,22,PB11*%
%TO.N,/I2C2_SDA*%
X93150000Y-74162500D03*
%TO.P,U2,21,PB10*%
%TO.N,/I2C2_SCL*%
X92650000Y-74162500D03*
%TO.P,U2,20,PB2*%
%TO.N,unconnected-(U2-PB2-Pad20)*%
X92150000Y-74162500D03*
%TO.P,U2,19,PB1*%
%TO.N,unconnected-(U2-PB1-Pad19)*%
X91650000Y-74162500D03*
%TO.P,U2,18,PB0*%
%TO.N,unconnected-(U2-PB0-Pad18)*%
X91150000Y-74162500D03*
%TO.P,U2,17,PA7*%
%TO.N,/PA7*%
X90650000Y-74162500D03*
%TO.P,U2,16,PA6*%
%TO.N,/PA6*%
X90150000Y-74162500D03*
%TO.P,U2,15,PA5*%
%TO.N,/PA5*%
X89650000Y-74162500D03*
%TO.P,U2,14,PA4*%
%TO.N,/PA4*%
X89150000Y-74162500D03*
%TO.P,U2,13,PA3*%
%TO.N,/PA3*%
X88650000Y-74162500D03*
D28*
%TO.P,U2,12,PA2*%
%TO.N,/PA2*%
X87237500Y-72750000D03*
%TO.P,U2,11,PA1*%
%TO.N,/PA1*%
X87237500Y-72250000D03*
%TO.P,U2,10,PA0*%
%TO.N,/PA0*%
X87237500Y-71750000D03*
%TO.P,U2,9,VDDA*%
%TO.N,+3.3VA*%
X87237500Y-71250000D03*
%TO.P,U2,8,VSSA*%
%TO.N,gnd*%
X87237500Y-70750000D03*
%TO.P,U2,7,NRST*%
%TO.N,/NRST*%
X87237500Y-70250000D03*
%TO.P,U2,6,PD1*%
%TO.N,/HSE_OUT*%
X87237500Y-69750000D03*
%TO.P,U2,5,PD0*%
%TO.N,/HSE_IN*%
X87237500Y-69250000D03*
%TO.P,U2,4,PC15*%
%TO.N,unconnected-(U2-PC15-Pad4)*%
X87237500Y-68750000D03*
%TO.P,U2,3,PC14*%
%TO.N,unconnected-(U2-PC14-Pad3)*%
X87237500Y-68250000D03*
%TO.P,U2,2,PC13*%
%TO.N,unconnected-(U2-PC13-Pad2)*%
X87237500Y-67750000D03*
%TO.P,U2,1,VBAT*%
%TO.N,+3.3V*%
X87237500Y-67250000D03*
%TD*%
D29*
%TO.P,U4,8,STBY*%
%TO.N,gnd*%
X80390000Y-59800000D03*
%TO.P,U4,7,CANH*%
%TO.N,/CANH*%
X81660000Y-59800000D03*
%TO.P,U4,6,CANL*%
%TO.N,/CANL*%
X82930000Y-59800000D03*
%TO.P,U4,5,Vio*%
%TO.N,VBUS*%
X84200000Y-59800000D03*
%TO.P,U4,4,RXD*%
%TO.N,/CAN_RX*%
X84200000Y-64750000D03*
%TO.P,U4,3,VDD*%
%TO.N,VBUS*%
X82930000Y-64750000D03*
%TO.P,U4,2,VSS*%
%TO.N,gnd*%
X81660000Y-64750000D03*
%TO.P,U4,1,TXD*%
%TO.N,/CAN_TX*%
X80390000Y-64750000D03*
%TD*%
D30*
%TO.P,J5,1,Pin_1*%
%TO.N,+3.3V*%
X80860000Y-82600000D03*
D31*
%TO.P,J5,2,Pin_2*%
%TO.N,/PA0*%
X83400000Y-82600000D03*
%TO.P,J5,3,Pin_3*%
%TO.N,/PA1*%
X85940000Y-82600000D03*
%TO.P,J5,4,Pin_4*%
%TO.N,/PA2*%
X88480000Y-82600000D03*
%TO.P,J5,5,Pin_5*%
%TO.N,/PA3*%
X91020000Y-82600000D03*
%TO.P,J5,6,Pin_6*%
%TO.N,/PA4*%
X93560000Y-82600000D03*
%TO.P,J5,7,Pin_7*%
%TO.N,/PA5*%
X96100000Y-82600000D03*
%TO.P,J5,8,Pin_8*%
%TO.N,/PA6*%
X98640000Y-82600000D03*
%TO.P,J5,9,Pin_9*%
%TO.N,/PA7*%
X101180000Y-82600000D03*
%TO.P,J5,10,Pin_10*%
%TO.N,+3.3V*%
X103720000Y-82600000D03*
%TO.P,J5,11,Pin_11*%
%TO.N,/I2C2_SCL*%
X106260000Y-82600000D03*
%TO.P,J5,12,Pin_12*%
%TO.N,/I2C2_SDA*%
X108800000Y-82600000D03*
%TO.P,J5,13,Pin_13*%
%TO.N,gnd*%
X111340000Y-82600000D03*
%TD*%
D32*
%TO.P,BOOT,1,A*%
%TO.N,gnd*%
X99700000Y-61200000D03*
%TO.P,BOOT,2,B*%
%TO.N,/SW_BOOT0*%
X96300000Y-61200000D03*
D33*
%TO.P,BOOT,3,C*%
%TO.N,+3.3V*%
X98000000Y-59560000D03*
%TD*%
D30*
%TO.P,UART,1,Pin_1*%
%TO.N,+3.3V*%
X97340000Y-56200000D03*
D31*
%TO.P,UART,2,Pin_2*%
%TO.N,/USART1_TX*%
X94800000Y-56200000D03*
%TO.P,UART,3,Pin_3*%
%TO.N,/USART1_RX*%
X92260000Y-56200000D03*
%TO.P,UART,4,Pin_4*%
%TO.N,gnd*%
X89720000Y-56200000D03*
%TD*%
D34*
%TO.P,RST,1,1*%
%TO.N,gnd*%
X78400000Y-76650000D03*
X78400000Y-72550000D03*
%TO.P,RST,2,2*%
%TO.N,/NRST*%
X80000000Y-76650000D03*
X80000000Y-72550000D03*
%TD*%
D30*
%TO.P,120R,1,A*%
%TO.N,/CANL*%
X76200000Y-62800000D03*
D31*
%TO.P,120R,2,B*%
%TO.N,Net-(JP1-B)*%
X73660000Y-62800000D03*
%TD*%
D35*
%TO.P,Y1,1,1*%
%TO.N,/HSE_IN*%
X78500000Y-67600000D03*
%TO.P,Y1,2,2*%
%TO.N,gnd*%
X78500000Y-69800000D03*
%TO.P,Y1,3,3*%
%TO.N,/HSE_OUT*%
X80200000Y-69800000D03*
%TO.P,Y1,4,4*%
%TO.N,gnd*%
X80200000Y-67600000D03*
%TD*%
D36*
%TO.P,U1,1,I/O1*%
%TO.N,Net-(J1-D--PadA7)*%
X108475000Y-70350000D03*
%TO.P,U1,2,GND*%
%TO.N,gnd*%
X108475000Y-69400000D03*
%TO.P,U1,3,I/O2*%
%TO.N,Net-(J1-D+-PadA6)*%
X108475000Y-68450000D03*
%TO.P,U1,4,I/O2*%
%TO.N,/USB_D+*%
X106200000Y-68450000D03*
%TO.P,U1,5,VBUS*%
%TO.N,VBUS*%
X106200000Y-69400000D03*
%TO.P,U1,6,I/O1*%
%TO.N,/USB_D-*%
X106200000Y-70350000D03*
%TD*%
D30*
%TO.P,J2,1,Pin_1*%
%TO.N,+3.3V*%
X101200000Y-56200000D03*
D31*
%TO.P,J2,2,Pin_2*%
%TO.N,/SWDIO*%
X103740000Y-56200000D03*
%TO.P,J2,3,Pin_3*%
%TO.N,/SWCLK*%
X106280000Y-56200000D03*
%TO.P,J2,4,Pin_4*%
%TO.N,gnd*%
X108820000Y-56200000D03*
%TD*%
D30*
%TO.P,CAN,1,Pin_1*%
%TO.N,+3.3V*%
X78200000Y-56200000D03*
D31*
%TO.P,CAN,2,Pin_2*%
%TO.N,/CANH*%
X80740000Y-56200000D03*
%TO.P,CAN,3,Pin_3*%
%TO.N,/CANL*%
X83280000Y-56200000D03*
%TO.P,CAN,4,Pin_4*%
%TO.N,gnd*%
X85820000Y-56200000D03*
%TD*%
D36*
%TO.P,U3,1,VIN*%
%TO.N,VBUS*%
X102137500Y-72750000D03*
%TO.P,U3,2,GND*%
%TO.N,gnd*%
X102137500Y-71800000D03*
%TO.P,U3,3,EN*%
%TO.N,VBUS*%
X102137500Y-70850000D03*
%TO.P,U3,4,NC*%
%TO.N,unconnected-(U3-NC-Pad4)*%
X99862500Y-70850000D03*
%TO.P,U3,5,VOUT*%
%TO.N,+3.3V*%
X99862500Y-72750000D03*
%TD*%
D37*
%TO.N,gnd*%
X109600000Y-69400000D03*
X98800000Y-74600000D03*
%TO.N,+3.3V*%
X89000000Y-68200000D03*
%TO.N,gnd*%
X89575000Y-61425000D03*
%TO.N,/CAN_RX*%
X90800000Y-63600000D03*
X84200000Y-63400000D03*
%TO.N,/CAN_TX*%
X80400000Y-63200000D03*
X90060000Y-64008926D03*
D38*
%TO.N,VBUS*%
X108800000Y-65600000D03*
X87800000Y-58200000D03*
D37*
%TO.N,gnd*%
X79600000Y-59000000D03*
X79600000Y-58200000D03*
X107200000Y-72600000D03*
X100200000Y-59000000D03*
X83000000Y-69600000D03*
X85800000Y-65400000D03*
X76800000Y-72400000D03*
X86600000Y-65400000D03*
X90000000Y-67600000D03*
X81400000Y-73800000D03*
X76800000Y-69800000D03*
X78800000Y-79200000D03*
X106400000Y-72600000D03*
X81400000Y-75000000D03*
X80400000Y-58200000D03*
X88800000Y-70800000D03*
X99400000Y-59000000D03*
X89400000Y-67200000D03*
X83800000Y-72600000D03*
X83000000Y-67750000D03*
X76800000Y-76800000D03*
X94800000Y-76800000D03*
X103344669Y-71144668D03*
X81600000Y-63200000D03*
X98400000Y-66800000D03*
%TO.N,+3.3V*%
X95400000Y-74000000D03*
X94200000Y-68200000D03*
%TD*%
D39*
%TO.N,gnd*%
X82000000Y-67440000D02*
X82690000Y-67440000D01*
X82690000Y-67440000D02*
X83000000Y-67750000D01*
D40*
%TO.N,/USART1_RX*%
X91150000Y-64650000D02*
X91800000Y-64000000D01*
X91150000Y-65837500D02*
X91150000Y-64650000D01*
X91800000Y-64000000D02*
X91800000Y-56660000D01*
X91800000Y-56660000D02*
X92260000Y-56200000D01*
%TO.N,/SWCLK*%
X94150000Y-60450000D02*
X96100000Y-58500000D01*
D39*
%TO.N,Net-(J1-CC1)*%
X112650000Y-71050000D02*
X114000000Y-72400000D01*
X111410000Y-71050000D02*
X112650000Y-71050000D01*
X113980000Y-72420000D02*
X113980000Y-76200000D01*
X114000000Y-72400000D02*
X113980000Y-72420000D01*
%TO.N,gnd*%
X89575000Y-62400000D02*
X89575000Y-61425000D01*
X89575000Y-61425000D02*
X89625000Y-61425000D01*
X89625000Y-61425000D02*
X89600000Y-61400000D01*
%TO.N,Net-(J1-D+-PadA6)*%
X111410000Y-70050000D02*
X110801176Y-70050000D01*
X110534000Y-69317176D02*
X110801176Y-69050000D01*
X110801176Y-70050000D02*
X110534000Y-69782824D01*
X110534000Y-69782824D02*
X110534000Y-69317176D01*
X110201176Y-68450000D02*
X110675588Y-68924412D01*
D40*
%TO.N,gnd*%
X109600000Y-69400000D02*
X108475000Y-69400000D01*
X111985000Y-74120000D02*
X111985000Y-73222376D01*
X111985000Y-73222376D02*
X111762624Y-73000000D01*
X111762624Y-73000000D02*
X111410000Y-73000000D01*
D41*
X115000000Y-76200000D02*
X115800000Y-76200000D01*
X116200000Y-74195000D02*
X116275000Y-74120000D01*
X115800000Y-76200000D02*
X116200000Y-75800000D01*
X116200000Y-75800000D02*
X116200000Y-74195000D01*
X113827528Y-77200000D02*
X112000000Y-75372472D01*
X112000000Y-75372472D02*
X112000000Y-74615000D01*
X112000000Y-74615000D02*
X112495000Y-74120000D01*
X111985000Y-65480000D02*
X111985000Y-66025000D01*
X111985000Y-66025000D02*
X111410000Y-66600000D01*
X115400000Y-63400000D02*
X116165000Y-64165000D01*
X116165000Y-64165000D02*
X116165000Y-65480000D01*
D40*
%TO.N,Net-(J1-CC2)*%
X112549000Y-68051000D02*
X112400000Y-68051000D01*
X111410000Y-68050000D02*
X112399000Y-68050000D01*
X112399000Y-68050000D02*
X112400000Y-68051000D01*
X114380000Y-63400000D02*
X114380000Y-66220000D01*
X114380000Y-66220000D02*
X112549000Y-68051000D01*
X112400000Y-68051000D02*
X112046678Y-68051000D01*
%TO.N,gnd*%
X97800000Y-74620000D02*
X98780000Y-74620000D01*
X98780000Y-74620000D02*
X98800000Y-74600000D01*
%TO.N,Net-(D2-A)*%
X95562500Y-71250000D02*
X97175000Y-71250000D01*
X97175000Y-71250000D02*
X97800000Y-70625000D01*
%TO.N,Net-(D2-K)*%
X97800000Y-72200000D02*
X97800000Y-73600000D01*
%TO.N,+3.3V*%
X95080000Y-76000000D02*
X95400000Y-76000000D01*
X95400000Y-76000000D02*
X96400000Y-77000000D01*
X96400000Y-77000000D02*
X98400000Y-77000000D01*
X98400000Y-77000000D02*
X95400000Y-74000000D01*
X97200000Y-77000000D02*
X99600000Y-77000000D01*
X99862500Y-76737500D02*
X99862500Y-72750000D01*
X99600000Y-77000000D02*
X99862500Y-76737500D01*
D39*
%TO.N,Net-(J1-D+-PadA6)*%
X110675588Y-68924412D02*
X110801176Y-69050000D01*
D41*
%TO.N,gnd*%
X80390000Y-58210000D02*
X80400000Y-58200000D01*
X80390000Y-59800000D02*
X80390000Y-58210000D01*
X81660000Y-64750000D02*
X81660000Y-63260000D01*
X81660000Y-63260000D02*
X81600000Y-63200000D01*
%TO.N,VBUS*%
X108808400Y-72200000D02*
X111410000Y-72200000D01*
X108800000Y-67400000D02*
X111410000Y-67400000D01*
D40*
%TO.N,+3.3V*%
X89000000Y-67900000D02*
X89000000Y-68200000D01*
X88450000Y-67350000D02*
X89000000Y-67900000D01*
X88650000Y-67550000D02*
X88450000Y-67350000D01*
X88650000Y-66950000D02*
X88650000Y-67550000D01*
D39*
%TO.N,/CAN_RX*%
X84200000Y-64750000D02*
X84200000Y-63400000D01*
X90150000Y-65837500D02*
X90150000Y-64768869D01*
X90150000Y-64768869D02*
X90800000Y-64118869D01*
X90800000Y-64118869D02*
X90800000Y-63600000D01*
%TO.N,/CAN_TX*%
X80400000Y-63200000D02*
X80400000Y-64740000D01*
X80400000Y-64740000D02*
X80390000Y-64750000D01*
X89650000Y-65837500D02*
X89658000Y-65829500D01*
X89658000Y-65829500D02*
X89658000Y-64559550D01*
X89658000Y-64559550D02*
X90060000Y-64157550D01*
X90060000Y-64157550D02*
X90060000Y-64008926D01*
D41*
%TO.N,VBUS*%
X108800000Y-65600000D02*
X108800000Y-67400000D01*
D40*
%TO.N,+3.3V*%
X104440000Y-74040000D02*
X104440000Y-73800000D01*
X105690000Y-80630000D02*
X103720000Y-82600000D01*
D41*
X80860000Y-82600000D02*
X80860000Y-83460000D01*
X80860000Y-82600000D02*
X71600000Y-73340000D01*
D40*
X100912500Y-73800000D02*
X104440000Y-73800000D01*
X97340000Y-55800000D02*
X101200000Y-55800000D01*
X88450000Y-67350000D02*
X88350000Y-67250000D01*
X88350000Y-67250000D02*
X87237500Y-67250000D01*
X80800000Y-80800000D02*
X80860000Y-80860000D01*
D41*
X71600000Y-73340000D02*
X71600000Y-61200000D01*
X81800000Y-84400000D02*
X101920000Y-84400000D01*
D40*
X82800000Y-76800000D02*
X82800000Y-78800000D01*
X110001000Y-80781000D02*
X110001000Y-83097471D01*
X88650000Y-64850000D02*
X88320000Y-64520000D01*
X104921000Y-83801000D02*
X103720000Y-82600000D01*
X88650000Y-65837500D02*
X88650000Y-64850000D01*
X88650000Y-65837500D02*
X88650000Y-66950000D01*
X105800000Y-75400000D02*
X104440000Y-74040000D01*
X95080000Y-75951740D02*
X94150000Y-75021740D01*
X101200000Y-62840000D02*
X101200000Y-55800000D01*
X88025000Y-63225000D02*
X88025000Y-62400000D01*
X83295000Y-76800000D02*
X84520000Y-75575000D01*
X105690000Y-79800000D02*
X105690000Y-80630000D01*
D41*
X72800000Y-60000000D02*
X73990000Y-60000000D01*
D40*
X109020000Y-79800000D02*
X110001000Y-80781000D01*
D41*
X73990000Y-60000000D02*
X78190000Y-55800000D01*
D40*
X82800000Y-78800000D02*
X80800000Y-80800000D01*
X88320000Y-63520000D02*
X88025000Y-63225000D01*
X95080000Y-76000000D02*
X95080000Y-75951740D01*
X110001000Y-83097471D02*
X109297471Y-83801000D01*
X109020000Y-79800000D02*
X109020000Y-78620000D01*
D41*
X71600000Y-61200000D02*
X72800000Y-60000000D01*
D40*
X95562500Y-67250000D02*
X94684818Y-67250000D01*
D41*
X80860000Y-83460000D02*
X81800000Y-84400000D01*
D40*
X82800000Y-76800000D02*
X83295000Y-76800000D01*
X87237500Y-67250000D02*
X85450000Y-67250000D01*
D41*
X98000000Y-59560000D02*
X98000000Y-56460000D01*
X101920000Y-84400000D02*
X103720000Y-82600000D01*
D40*
X99862500Y-72750000D02*
X100912500Y-73800000D01*
X96350000Y-67250000D02*
X95562500Y-67250000D01*
X83200000Y-75000000D02*
X83945000Y-75000000D01*
X88320000Y-64520000D02*
X88320000Y-64000000D01*
X88320000Y-64000000D02*
X88320000Y-63520000D01*
X97400000Y-66640000D02*
X96960000Y-66640000D01*
D41*
X98000000Y-56460000D02*
X97340000Y-55800000D01*
D40*
X88650000Y-66950000D02*
X88350000Y-67250000D01*
X109297471Y-83801000D02*
X104921000Y-83801000D01*
X96960000Y-66640000D02*
X96350000Y-67250000D01*
X85450000Y-67250000D02*
X85400000Y-67200000D01*
X83945000Y-75000000D02*
X84520000Y-75575000D01*
X80860000Y-80860000D02*
X80860000Y-82600000D01*
X97400000Y-66640000D02*
X101200000Y-62840000D01*
X94150000Y-75021740D02*
X94150000Y-74162500D01*
X109020000Y-78620000D02*
X105800000Y-75400000D01*
%TO.N,gnd*%
X82240000Y-75000000D02*
X81400000Y-75000000D01*
X93650000Y-75530000D02*
X94120000Y-76000000D01*
X102799999Y-71800000D02*
X102137500Y-71800000D01*
X97250000Y-67750000D02*
X97400000Y-67600000D01*
X106400000Y-73600000D02*
X106600000Y-73800000D01*
X82240000Y-73800000D02*
X81400000Y-73800000D01*
X99700000Y-61200000D02*
X99700000Y-59500000D01*
X84770000Y-70750000D02*
X84600000Y-70920000D01*
X84600000Y-70920000D02*
X84285284Y-70920000D01*
X78400000Y-77800000D02*
X78400000Y-76650000D01*
X89400000Y-67200000D02*
X89600000Y-67200000D01*
X89150000Y-65837500D02*
X89150000Y-64850000D01*
X99700000Y-59500000D02*
X100200000Y-59000000D01*
X87237500Y-70750000D02*
X88750000Y-70750000D01*
X105400000Y-73800000D02*
X105400000Y-72840000D01*
X83800000Y-71405284D02*
X83800000Y-72600000D01*
D39*
X85400000Y-66240000D02*
X85400000Y-65800000D01*
D41*
X113827528Y-77200000D02*
X114800000Y-77200000D01*
D40*
X81840000Y-67600000D02*
X82000000Y-67440000D01*
X89150000Y-64850000D02*
X89280000Y-64720000D01*
X94120000Y-76120000D02*
X94800000Y-76800000D01*
D41*
X83000000Y-69600000D02*
X82000000Y-69600000D01*
D40*
X99700000Y-59500000D02*
X99700000Y-59300000D01*
X106400000Y-72600000D02*
X106400000Y-73600000D01*
X106200000Y-72800000D02*
X106400000Y-72600000D01*
D41*
X86800000Y-60200000D02*
X86800000Y-60600000D01*
D40*
X89280000Y-64000000D02*
X89280000Y-63520000D01*
X78400000Y-72550000D02*
X76950000Y-72550000D01*
D41*
X98400000Y-66800000D02*
X97600000Y-67600000D01*
D40*
X84285284Y-70920000D02*
X83800000Y-71405284D01*
X103344669Y-71255330D02*
X102799999Y-71800000D01*
X89280000Y-64720000D02*
X89280000Y-64000000D01*
X89720000Y-57280000D02*
X86800000Y-60200000D01*
D41*
X114800000Y-77200000D02*
X115000000Y-77000000D01*
D40*
X107200000Y-73200000D02*
X106600000Y-73800000D01*
X89280000Y-63520000D02*
X89575000Y-63225000D01*
X94120000Y-76000000D02*
X94120000Y-76120000D01*
D41*
X78500000Y-72450000D02*
X78400000Y-72550000D01*
X78500000Y-69800000D02*
X76800000Y-69800000D01*
D40*
X88750000Y-70750000D02*
X88800000Y-70800000D01*
D41*
X78500000Y-69800000D02*
X78500000Y-72450000D01*
D39*
X85400000Y-65800000D02*
X85800000Y-65400000D01*
D41*
X113827528Y-77200000D02*
X113827528Y-80112472D01*
D40*
X78720000Y-78200000D02*
X78720000Y-79120000D01*
X87237500Y-70750000D02*
X84770000Y-70750000D01*
X78720000Y-78200000D02*
X78720000Y-78120000D01*
X76950000Y-76650000D02*
X76800000Y-76800000D01*
X82240000Y-73800000D02*
X82240000Y-75000000D01*
X78400000Y-76650000D02*
X76950000Y-76650000D01*
X89150000Y-66950000D02*
X89400000Y-67200000D01*
D41*
X86800000Y-59200000D02*
X86800000Y-60200000D01*
D39*
X85800000Y-65400000D02*
X86600000Y-65400000D01*
D41*
X113827528Y-80112472D02*
X111340000Y-82600000D01*
D40*
X105400000Y-72840000D02*
X105360000Y-72800000D01*
X103344669Y-71144668D02*
X103344669Y-71255330D01*
X95562500Y-67750000D02*
X97250000Y-67750000D01*
X105360000Y-72800000D02*
X106200000Y-72800000D01*
X78720000Y-79120000D02*
X78800000Y-79200000D01*
X93650000Y-74162500D02*
X93650000Y-75530000D01*
X89575000Y-63225000D02*
X89575000Y-62400000D01*
X78720000Y-78120000D02*
X78400000Y-77800000D01*
X80200000Y-67600000D02*
X81840000Y-67600000D01*
D41*
X97600000Y-67600000D02*
X97400000Y-67600000D01*
X115000000Y-77000000D02*
X115000000Y-76200000D01*
D40*
X89150000Y-65837500D02*
X89150000Y-66950000D01*
X106600000Y-73800000D02*
X105400000Y-73800000D01*
X89600000Y-67200000D02*
X90000000Y-67600000D01*
X76950000Y-72550000D02*
X76800000Y-72400000D01*
X89720000Y-56200000D02*
X89720000Y-57280000D01*
X99700000Y-59300000D02*
X99400000Y-59000000D01*
X107200000Y-72600000D02*
X107200000Y-73200000D01*
X78400000Y-76650000D02*
X78400000Y-72550000D01*
%TO.N,+3.3VA*%
X84520000Y-74000000D02*
X84520000Y-71960000D01*
X87237500Y-71250000D02*
X85350000Y-71250000D01*
X84520000Y-71960000D02*
X84600000Y-71880000D01*
X84320000Y-73800000D02*
X84520000Y-74000000D01*
X83200000Y-73800000D02*
X84320000Y-73800000D01*
X84720000Y-71880000D02*
X84600000Y-71880000D01*
X84720000Y-74160000D02*
X84760000Y-74200000D01*
X85350000Y-71250000D02*
X84720000Y-71880000D01*
%TO.N,/NRST*%
X80000000Y-72550000D02*
X80000000Y-76650000D01*
X84250000Y-70250000D02*
X83195870Y-71304130D01*
X80000000Y-76650000D02*
X81630000Y-76650000D01*
X82850000Y-72550000D02*
X80000000Y-72550000D01*
X80000000Y-77600000D02*
X80000000Y-76650000D01*
X81630000Y-76650000D02*
X81780000Y-76800000D01*
X83195870Y-72195870D02*
X83000000Y-72391740D01*
X87237500Y-70250000D02*
X84250000Y-70250000D01*
X79680000Y-77920000D02*
X80000000Y-77600000D01*
X79680000Y-78200000D02*
X79680000Y-77920000D01*
X83000000Y-72391740D02*
X83000000Y-72400000D01*
X83195870Y-71304130D02*
X83195870Y-72195870D01*
X83000000Y-72400000D02*
X82850000Y-72550000D01*
%TO.N,/HSE_IN*%
X81200000Y-68400000D02*
X80949000Y-68651000D01*
X79551000Y-68651000D02*
X78500000Y-67600000D01*
X87237500Y-69250000D02*
X86250000Y-69250000D01*
X86250000Y-69250000D02*
X85400000Y-68400000D01*
X81200000Y-68400000D02*
X82000000Y-68400000D01*
X85400000Y-68400000D02*
X82000000Y-68400000D01*
X80949000Y-68651000D02*
X79551000Y-68651000D01*
%TO.N,/HSE_OUT*%
X84050000Y-69750000D02*
X83240000Y-70560000D01*
X82000000Y-70560000D02*
X80960000Y-70560000D01*
X80960000Y-70560000D02*
X80200000Y-69800000D01*
X82040000Y-70600000D02*
X82000000Y-70560000D01*
X83240000Y-70560000D02*
X82000000Y-70560000D01*
X87237500Y-69750000D02*
X84050000Y-69750000D01*
D41*
%TO.N,VBUS*%
X108008400Y-67400000D02*
X108800000Y-67400000D01*
X85840000Y-59200000D02*
X85640000Y-59200000D01*
X107361500Y-68900999D02*
X107361500Y-68046900D01*
X84200000Y-59800000D02*
X84800000Y-59800000D01*
X84800000Y-59800000D02*
X85040000Y-59800000D01*
X85320000Y-59320000D02*
X85320000Y-59520000D01*
X106862499Y-69400000D02*
X107313500Y-69851001D01*
X84800000Y-59400000D02*
X85120000Y-59720000D01*
X103639501Y-69839501D02*
X102560499Y-69839501D01*
X85120000Y-59720000D02*
X85040000Y-59800000D01*
X85000000Y-59000000D02*
X85300000Y-58700000D01*
X107361500Y-68046900D02*
X108008400Y-67400000D01*
D40*
X102137500Y-72750000D02*
X101712322Y-72750000D01*
X102187500Y-72800000D02*
X102137500Y-72750000D01*
D41*
X104448999Y-71101000D02*
X102799999Y-72750000D01*
X85640000Y-59200000D02*
X85320000Y-59520000D01*
X104448999Y-71101000D02*
X104200000Y-70852001D01*
X107504200Y-70895800D02*
X107704200Y-71095800D01*
X107313500Y-70705100D02*
X107504200Y-70895800D01*
X85340000Y-58700000D02*
X85840000Y-59200000D01*
X84800000Y-59200000D02*
X84600000Y-59400000D01*
X84800000Y-59200000D02*
X85000000Y-59000000D01*
X85300000Y-58700000D02*
X85340000Y-58700000D01*
X84200000Y-59800000D02*
X84800000Y-59200000D01*
X104200000Y-70852001D02*
X104200000Y-70400000D01*
X85000000Y-59000000D02*
X85320000Y-59320000D01*
D40*
X104400000Y-72800000D02*
X102187500Y-72800000D01*
D41*
X84600000Y-59400000D02*
X84600000Y-59600000D01*
X102137500Y-70262500D02*
X102137500Y-70850000D01*
X104200000Y-70400000D02*
X103639501Y-69839501D01*
X106200000Y-69400000D02*
X106862499Y-69400000D01*
X84600000Y-59600000D02*
X84800000Y-59800000D01*
X107504200Y-70895800D02*
X108808400Y-72200000D01*
X107313500Y-70705100D02*
X107313500Y-70753100D01*
X85800000Y-58200000D02*
X87800000Y-58200000D01*
D40*
X101712322Y-70850000D02*
X102137500Y-70850000D01*
D41*
X106965600Y-71101000D02*
X104448999Y-71101000D01*
X82930000Y-63510000D02*
X82930000Y-64750000D01*
X85300000Y-58700000D02*
X85800000Y-58200000D01*
X85320000Y-59520000D02*
X85120000Y-59720000D01*
X107313500Y-69851001D02*
X107313500Y-70705100D01*
X82930000Y-62044999D02*
X82930000Y-64750000D01*
X85040000Y-59800000D02*
X85840000Y-60600000D01*
X102799999Y-72750000D02*
X102137500Y-72750000D01*
X84200000Y-60774999D02*
X82930000Y-62044999D01*
X84800000Y-59200000D02*
X84800000Y-59400000D01*
X102560499Y-69839501D02*
X102137500Y-70262500D01*
X107313500Y-70753100D02*
X106965600Y-71101000D01*
X106862499Y-69400000D02*
X107361500Y-68900999D01*
D40*
%TO.N,/PWR_LED_K*%
X107375000Y-74045000D02*
X107620000Y-73800000D01*
X107375000Y-75400000D02*
X107375000Y-74045000D01*
%TO.N,Net-(J1-D+-PadA6)*%
X111920000Y-70050000D02*
X111242466Y-70050000D01*
X111242466Y-70050000D02*
X111241466Y-70051000D01*
%TO.N,/SWDIO*%
X103740000Y-62460000D02*
X103740000Y-55800000D01*
X97950000Y-68250000D02*
X103740000Y-62460000D01*
X95562500Y-68250000D02*
X97950000Y-68250000D01*
%TO.N,/SWCLK*%
X94150000Y-65837500D02*
X94150000Y-60450000D01*
X96100000Y-58500000D02*
X96100000Y-55038000D01*
X105079000Y-54999000D02*
X106280000Y-56200000D01*
X96139000Y-54999000D02*
X105079000Y-54999000D01*
X96100000Y-55038000D02*
X96139000Y-54999000D01*
%TO.N,/I2C2_SDA*%
X93150000Y-74162500D02*
X93150000Y-76150000D01*
X108000000Y-81800000D02*
X108800000Y-82600000D01*
X93150000Y-76150000D02*
X95600000Y-78600000D01*
X108000000Y-79800000D02*
X108000000Y-81800000D01*
X106800000Y-78600000D02*
X108000000Y-79800000D01*
X95600000Y-78600000D02*
X106800000Y-78600000D01*
%TO.N,/I2C2_SCL*%
X92650000Y-74162500D02*
X92650000Y-76450000D01*
X106039000Y-79129000D02*
X106710000Y-79800000D01*
X106710000Y-82150000D02*
X106260000Y-82600000D01*
X106710000Y-79800000D02*
X106710000Y-82150000D01*
X92650000Y-76450000D02*
X95329000Y-79129000D01*
X95329000Y-79129000D02*
X106039000Y-79129000D01*
%TO.N,/USART1_TX*%
X91650000Y-64950000D02*
X92400000Y-64200000D01*
X92400000Y-64200000D02*
X92400000Y-61200000D01*
X92400000Y-61200000D02*
X94800000Y-58800000D01*
X94800000Y-58800000D02*
X94800000Y-55800000D01*
X91650000Y-65837500D02*
X91650000Y-64950000D01*
%TO.N,/CANH*%
X81660000Y-59800000D02*
X81660000Y-56730000D01*
X77436000Y-61126000D02*
X81394000Y-61126000D01*
X81660000Y-60860000D02*
X81660000Y-59800000D01*
X76510000Y-60200000D02*
X77436000Y-61126000D01*
X81660000Y-56730000D02*
X80730000Y-55800000D01*
X81394000Y-61126000D02*
X81660000Y-60860000D01*
%TO.N,/CANL*%
X82930000Y-61270000D02*
X82930000Y-59800000D01*
X82930000Y-59800000D02*
X82930000Y-56140000D01*
X79600000Y-61800000D02*
X82400000Y-61800000D01*
X82400000Y-61800000D02*
X82930000Y-61270000D01*
X82930000Y-56140000D02*
X83270000Y-55800000D01*
X76200000Y-62800000D02*
X78600000Y-62800000D01*
X78600000Y-62800000D02*
X79600000Y-61800000D01*
%TO.N,/PA7*%
X90650000Y-74162500D02*
X90650000Y-75250000D01*
X90650000Y-75250000D02*
X95600000Y-80200000D01*
X95600000Y-80200000D02*
X98780000Y-80200000D01*
X98780000Y-80200000D02*
X101180000Y-82600000D01*
%TO.N,/PA2*%
X87237500Y-81357500D02*
X88480000Y-82600000D01*
X87237500Y-72750000D02*
X87237500Y-81357500D01*
%TO.N,/PA4*%
X89150000Y-74162500D02*
X89150000Y-78190000D01*
X89150000Y-78190000D02*
X93560000Y-82600000D01*
%TO.N,/PA5*%
X89650000Y-74162500D02*
X89650000Y-76150000D01*
X89650000Y-76150000D02*
X96100000Y-82600000D01*
%TO.N,/PA1*%
X86355284Y-72250000D02*
X85940000Y-72665284D01*
X87237500Y-72250000D02*
X86355284Y-72250000D01*
X85940000Y-72665284D02*
X85940000Y-82600000D01*
%TO.N,/PA3*%
X88650000Y-74162500D02*
X88650000Y-80230000D01*
X88650000Y-80230000D02*
X91020000Y-82600000D01*
%TO.N,/PA0*%
X85400000Y-72600000D02*
X85400000Y-78400000D01*
X83400000Y-80400000D02*
X83400000Y-82600000D01*
X86250000Y-71750000D02*
X85400000Y-72600000D01*
X87237500Y-71750000D02*
X86250000Y-71750000D01*
X85400000Y-78400000D02*
X83400000Y-80400000D01*
%TO.N,/PA6*%
X95400000Y-81000000D02*
X97040000Y-81000000D01*
X90150000Y-75750000D02*
X95400000Y-81000000D01*
X97040000Y-81000000D02*
X98640000Y-82600000D01*
X90150000Y-74162500D02*
X90150000Y-75750000D01*
%TO.N,/SW_BOOT0*%
X97100000Y-62000000D02*
X96300000Y-61200000D01*
X97100000Y-63400000D02*
X97100000Y-62000000D01*
%TO.N,/BOOT0*%
X94274000Y-66926000D02*
X94403534Y-66926000D01*
X94651000Y-66149000D02*
X96080000Y-64720000D01*
X96080000Y-64720000D02*
X96080000Y-63400000D01*
X94403534Y-66926000D02*
X94651000Y-66678534D01*
X90650000Y-66850000D02*
X90800000Y-67000000D01*
X94651000Y-66678534D02*
X94651000Y-66149000D01*
X90800000Y-67000000D02*
X94200000Y-67000000D01*
X90650000Y-65837500D02*
X90650000Y-66850000D01*
X94200000Y-67000000D02*
X94274000Y-66926000D01*
D39*
%TO.N,/USB_D+*%
X96693751Y-68775000D02*
X105225000Y-68775000D01*
X105225000Y-68775000D02*
X105550000Y-68450000D01*
X96668751Y-68750000D02*
X96693751Y-68775000D01*
X95562500Y-68750000D02*
X96668751Y-68750000D01*
X105550000Y-68450000D02*
X106200000Y-68450000D01*
%TO.N,/USB_D-*%
X96693751Y-69225000D02*
X104400000Y-69225000D01*
X96668751Y-69250000D02*
X96693751Y-69225000D01*
X95562500Y-69250000D02*
X96668751Y-69250000D01*
X105525000Y-70350000D02*
X106200000Y-70350000D01*
X104400000Y-69225000D02*
X105525000Y-70350000D01*
X105775000Y-70600000D02*
X106200000Y-70600000D01*
D40*
%TO.N,/CAN_TX*%
X80390000Y-65190000D02*
X80390000Y-64750000D01*
%TO.N,Net-(JP1-B)*%
X73660000Y-62800000D02*
X75490000Y-60970000D01*
X75490000Y-60970000D02*
X75490000Y-60200000D01*
%TO.N,+3.3V*%
X94200000Y-67734818D02*
X94684818Y-67250000D01*
X94200000Y-68200000D02*
X94200000Y-67734818D01*
D39*
%TO.N,Net-(J1-D--PadA7)*%
X108475000Y-70350000D02*
X108675000Y-70550000D01*
%TO.N,Net-(J1-D+-PadA6)*%
X108475000Y-68450000D02*
X110201176Y-68450000D01*
X110801176Y-69050000D02*
X111410000Y-69050000D01*
%TO.N,Net-(J1-D--PadA7)*%
X112150000Y-69550000D02*
X111410000Y-69550000D01*
X112400000Y-69800000D02*
X112150000Y-69550000D01*
X112250000Y-70550000D02*
X112400000Y-70400000D01*
X112400000Y-70400000D02*
X112400000Y-69800000D01*
X111410000Y-70550000D02*
X112250000Y-70550000D01*
X108675000Y-70550000D02*
X111410000Y-70550000D01*
D40*
%TO.N,/USART1_RX*%
X92260000Y-55800000D02*
X91972000Y-56088000D01*
%TD*%
%TA.AperFunction,Conductor*%
%TO.N,+3.3V*%
G36*
X100343039Y-75619685D02*
G01*
X100388794Y-75672489D01*
X100400000Y-75724000D01*
X100400000Y-77476000D01*
X100380315Y-77543039D01*
X100327511Y-77588794D01*
X100276000Y-77600000D01*
X96070207Y-77600000D01*
X96003168Y-77580315D01*
X95963878Y-77539797D01*
X95417671Y-76629451D01*
X95400000Y-76565654D01*
X95400000Y-75724000D01*
X95419685Y-75656961D01*
X95472489Y-75611206D01*
X95524000Y-75600000D01*
X100276000Y-75600000D01*
X100343039Y-75619685D01*
G37*
%TD.AperFunction*%
%TD*%
%TA.AperFunction,Conductor*%
%TO.N,+3.3V*%
G36*
X81743039Y-80819685D02*
G01*
X81788794Y-80872489D01*
X81800000Y-80924000D01*
X81800000Y-81126000D01*
X81780315Y-81193039D01*
X81727511Y-81238794D01*
X81676000Y-81250000D01*
X81110000Y-81250000D01*
X81110000Y-82166988D01*
X81052993Y-82134075D01*
X80925826Y-82100000D01*
X80794174Y-82100000D01*
X80667007Y-82134075D01*
X80610000Y-82166988D01*
X80610000Y-81250000D01*
X79962155Y-81250000D01*
X79902627Y-81256401D01*
X79902620Y-81256403D01*
X79767913Y-81306645D01*
X79767906Y-81306649D01*
X79652812Y-81392809D01*
X79652809Y-81392812D01*
X79566649Y-81507906D01*
X79566645Y-81507913D01*
X79516403Y-81642620D01*
X79516401Y-81642627D01*
X79510000Y-81702155D01*
X79510000Y-82350000D01*
X80426988Y-82350000D01*
X80394075Y-82407007D01*
X80360000Y-82534174D01*
X80360000Y-82665826D01*
X80394075Y-82792993D01*
X80426988Y-82850000D01*
X79510000Y-82850000D01*
X79510000Y-83497844D01*
X79516401Y-83557372D01*
X79516403Y-83557379D01*
X79566645Y-83692086D01*
X79566649Y-83692093D01*
X79652809Y-83807187D01*
X79652812Y-83807190D01*
X79767906Y-83893350D01*
X79767913Y-83893354D01*
X79902620Y-83943596D01*
X79902627Y-83943598D01*
X79962155Y-83949999D01*
X79962172Y-83950000D01*
X80610000Y-83950000D01*
X80610000Y-83033012D01*
X80667007Y-83065925D01*
X80794174Y-83100000D01*
X80925826Y-83100000D01*
X81052993Y-83065925D01*
X81110000Y-83033012D01*
X81110000Y-83950000D01*
X81676000Y-83950000D01*
X81743039Y-83969685D01*
X81788794Y-84022489D01*
X81800000Y-84074000D01*
X81800000Y-84876000D01*
X81780315Y-84943039D01*
X81727511Y-84988794D01*
X81676000Y-85000000D01*
X77324000Y-85000000D01*
X77256961Y-84980315D01*
X77211206Y-84927511D01*
X77200000Y-84876000D01*
X77200000Y-80924000D01*
X77219685Y-80856961D01*
X77272489Y-80811206D01*
X77324000Y-80800000D01*
X81676000Y-80800000D01*
X81743039Y-80819685D01*
G37*
%TD.AperFunction*%
%TD*%
%TA.AperFunction,Conductor*%
%TO.N,VBUS*%
G36*
X86147338Y-57819685D02*
G01*
X86193093Y-57872489D01*
X86204222Y-57919627D01*
X86216329Y-58262693D01*
X86199021Y-58330385D01*
X86147864Y-58377973D01*
X86102449Y-58386147D01*
X86090000Y-58395494D01*
X86090000Y-60476000D01*
X86070315Y-60543039D01*
X86017511Y-60588794D01*
X85966000Y-60600000D01*
X85714000Y-60600000D01*
X85646961Y-60580315D01*
X85601206Y-60527511D01*
X85590000Y-60476000D01*
X85590000Y-58395494D01*
X85589998Y-58395493D01*
X85443809Y-58437965D01*
X85443806Y-58437967D01*
X85304625Y-58520278D01*
X85304616Y-58520285D01*
X85190285Y-58634616D01*
X85190281Y-58634622D01*
X85153804Y-58696301D01*
X85102734Y-58743984D01*
X85033992Y-58756487D01*
X84969403Y-58729841D01*
X84940340Y-58696300D01*
X84867685Y-58573447D01*
X84867678Y-58573438D01*
X84751561Y-58457321D01*
X84751552Y-58457314D01*
X84610196Y-58373717D01*
X84610193Y-58373716D01*
X84452494Y-58327900D01*
X84452497Y-58327900D01*
X84450000Y-58327703D01*
X84450000Y-59550000D01*
X85006000Y-59550000D01*
X85073039Y-59569685D01*
X85118794Y-59622489D01*
X85124287Y-59647742D01*
X85125605Y-59647382D01*
X85130000Y-59663448D01*
X85190279Y-59765375D01*
X85190285Y-59765383D01*
X85237221Y-59812319D01*
X85240973Y-59819190D01*
X85247333Y-59823760D01*
X85257481Y-59849423D01*
X85270706Y-59873642D01*
X85270147Y-59881452D01*
X85273027Y-59888734D01*
X85267690Y-59915807D01*
X85265722Y-59943334D01*
X85260686Y-59951340D01*
X85259515Y-59957284D01*
X85241502Y-59981843D01*
X85238921Y-59985948D01*
X85178048Y-60049253D01*
X85153201Y-60063459D01*
X85129994Y-60080216D01*
X85123253Y-60080581D01*
X85117393Y-60083932D01*
X85088806Y-60082449D01*
X85060227Y-60083999D01*
X85054227Y-60080655D01*
X85047617Y-60080313D01*
X85026890Y-60065421D01*
X85000986Y-60050986D01*
X85000000Y-60050000D01*
X84450000Y-60050000D01*
X84450000Y-61272295D01*
X84450001Y-61272295D01*
X84452486Y-61272100D01*
X84610198Y-61226281D01*
X84751552Y-61142685D01*
X84751561Y-61142678D01*
X84867678Y-61026561D01*
X84867685Y-61026552D01*
X84883017Y-61000627D01*
X84934085Y-60952942D01*
X85002827Y-60940437D01*
X85067416Y-60967082D01*
X85103892Y-61019455D01*
X85104869Y-61019033D01*
X85106954Y-61023851D01*
X85107348Y-61024417D01*
X85107734Y-61025654D01*
X85107968Y-61026195D01*
X85190278Y-61165374D01*
X85190285Y-61165383D01*
X85304616Y-61279714D01*
X85304627Y-61279723D01*
X85306320Y-61280724D01*
X85307375Y-61281854D01*
X85310785Y-61284499D01*
X85310358Y-61285049D01*
X85354002Y-61331794D01*
X85366504Y-61400537D01*
X85339856Y-61465125D01*
X85282520Y-61505054D01*
X85278185Y-61506415D01*
X83600000Y-62000000D01*
X83600000Y-63259969D01*
X83580315Y-63327008D01*
X83527511Y-63372763D01*
X83458353Y-63382707D01*
X83412880Y-63366701D01*
X83340200Y-63323719D01*
X83340193Y-63323716D01*
X83182494Y-63277900D01*
X83182497Y-63277900D01*
X83180000Y-63277703D01*
X83180000Y-64000000D01*
X82680000Y-64000000D01*
X82680000Y-63277703D01*
X82677502Y-63277900D01*
X82671281Y-63279038D01*
X82670929Y-63277117D01*
X82610232Y-63276929D01*
X82551571Y-63238973D01*
X82522743Y-63175328D01*
X82522780Y-63140533D01*
X82596652Y-62623429D01*
X82611743Y-62579449D01*
X83075629Y-61767648D01*
X83095594Y-61741508D01*
X83290489Y-61546614D01*
X83349799Y-61443887D01*
X83366863Y-61380201D01*
X83380500Y-61329309D01*
X83380500Y-61259454D01*
X83381427Y-61251918D01*
X83389450Y-61233356D01*
X83396840Y-61205531D01*
X83399995Y-61200008D01*
X83400000Y-61200000D01*
X83412993Y-61161019D01*
X83452867Y-61103645D01*
X83517431Y-61076937D01*
X83586185Y-61089373D01*
X83618311Y-61112551D01*
X83648438Y-61142678D01*
X83648447Y-61142685D01*
X83789801Y-61226281D01*
X83947514Y-61272100D01*
X83947511Y-61272100D01*
X83949998Y-61272295D01*
X83950000Y-61272295D01*
X83950000Y-58327703D01*
X83947501Y-58327900D01*
X83946281Y-58328124D01*
X83945595Y-58328051D01*
X83941205Y-58328399D01*
X83941140Y-58327582D01*
X83876796Y-58320806D01*
X83822298Y-58277083D01*
X83800089Y-58210837D01*
X83800000Y-58206142D01*
X83800000Y-57924000D01*
X83819685Y-57856961D01*
X83872489Y-57811206D01*
X83924000Y-57800000D01*
X86080299Y-57800000D01*
X86147338Y-57819685D01*
G37*
%TD.AperFunction*%
%TD*%
%TA.AperFunction,Conductor*%
%TO.N,gnd*%
G36*
X80743039Y-58019685D02*
G01*
X80788794Y-58072489D01*
X80800000Y-58124000D01*
X80800000Y-58208507D01*
X80780315Y-58275546D01*
X80727511Y-58321301D01*
X80658353Y-58331245D01*
X80644909Y-58328341D01*
X80642497Y-58327900D01*
X80640000Y-58327703D01*
X80640000Y-59676000D01*
X80620315Y-59743039D01*
X80567511Y-59788794D01*
X80516000Y-59800000D01*
X80390000Y-59800000D01*
X80390000Y-59926000D01*
X80370315Y-59993039D01*
X80317511Y-60038794D01*
X80266000Y-60050000D01*
X79590000Y-60050000D01*
X79590000Y-60551500D01*
X79570315Y-60618539D01*
X79517511Y-60664294D01*
X79466000Y-60675500D01*
X79124000Y-60675500D01*
X79056961Y-60655815D01*
X79011206Y-60603011D01*
X79000000Y-60551500D01*
X79000000Y-58909350D01*
X79590000Y-58909350D01*
X79590000Y-59550000D01*
X80140000Y-59550000D01*
X80140000Y-58327703D01*
X80137503Y-58327900D01*
X79979806Y-58373716D01*
X79979803Y-58373717D01*
X79838447Y-58457314D01*
X79838438Y-58457321D01*
X79722321Y-58573438D01*
X79722314Y-58573447D01*
X79638717Y-58714803D01*
X79638716Y-58714806D01*
X79592900Y-58872504D01*
X79592899Y-58872510D01*
X79590000Y-58909350D01*
X79000000Y-58909350D01*
X79000000Y-58124000D01*
X79019685Y-58056961D01*
X79072489Y-58011206D01*
X79124000Y-58000000D01*
X80676000Y-58000000D01*
X80743039Y-58019685D01*
G37*
%TD.AperFunction*%
%TD*%
%TA.AperFunction,Conductor*%
%TO.N,VBUS*%
G36*
X104196203Y-69645185D02*
G01*
X104241958Y-69697989D01*
X104243120Y-69700613D01*
X104800000Y-71000000D01*
X105710349Y-71000000D01*
X105717978Y-71000500D01*
X105722273Y-71000500D01*
X106257022Y-71000500D01*
X106264651Y-71000000D01*
X110076000Y-71000000D01*
X110143039Y-71019685D01*
X110188794Y-71072489D01*
X110200000Y-71124000D01*
X110200000Y-72676000D01*
X110180315Y-72743039D01*
X110127511Y-72788794D01*
X110076000Y-72800000D01*
X108451362Y-72800000D01*
X108384323Y-72780315D01*
X108363681Y-72763681D01*
X107600000Y-72000000D01*
X107280923Y-72000000D01*
X107279057Y-71999500D01*
X107120943Y-71999500D01*
X107119077Y-72000000D01*
X106490981Y-72000000D01*
X106483352Y-71999500D01*
X106479057Y-71999500D01*
X106320943Y-71999500D01*
X106316648Y-71999500D01*
X106309019Y-72000000D01*
X103536463Y-72000000D01*
X103515217Y-71993761D01*
X103493129Y-71992182D01*
X103482345Y-71984109D01*
X103469424Y-71980315D01*
X103454924Y-71963581D01*
X103437196Y-71950310D01*
X103432488Y-71937689D01*
X103423669Y-71927511D01*
X103420517Y-71905593D01*
X103412779Y-71884846D01*
X103415641Y-71871685D01*
X103413725Y-71858353D01*
X103422924Y-71838209D01*
X103427631Y-71816573D01*
X103440899Y-71798847D01*
X103442750Y-71794797D01*
X103448782Y-71788319D01*
X103493405Y-71743696D01*
X103548994Y-71711602D01*
X103576453Y-71704245D01*
X103713385Y-71625188D01*
X103825189Y-71513384D01*
X103904246Y-71376452D01*
X103945169Y-71223725D01*
X103945169Y-71065611D01*
X103904246Y-70912884D01*
X103898420Y-70902793D01*
X103821126Y-70768913D01*
X103822398Y-70768178D01*
X103800429Y-70711344D01*
X103800000Y-70701032D01*
X103800000Y-70600000D01*
X103635502Y-70600000D01*
X103584717Y-70586390D01*
X103583967Y-70588203D01*
X103576455Y-70585092D01*
X103576454Y-70585091D01*
X103576453Y-70585091D01*
X103423726Y-70544168D01*
X103374705Y-70544168D01*
X103307666Y-70524483D01*
X103261911Y-70471679D01*
X103255629Y-70454763D01*
X103251283Y-70439807D01*
X103251281Y-70439801D01*
X103167685Y-70298447D01*
X103167678Y-70298438D01*
X103051561Y-70182321D01*
X103051552Y-70182314D01*
X102910196Y-70098717D01*
X102910193Y-70098716D01*
X102752495Y-70052900D01*
X102752489Y-70052899D01*
X102715649Y-70050000D01*
X102387500Y-70050000D01*
X102387500Y-70600000D01*
X101887500Y-70600000D01*
X101887500Y-70050000D01*
X101559350Y-70050000D01*
X101522510Y-70052899D01*
X101522507Y-70052900D01*
X101433012Y-70078900D01*
X101363143Y-70078699D01*
X101304474Y-70040757D01*
X101276829Y-69984145D01*
X101234763Y-69773815D01*
X101240918Y-69704220D01*
X101283723Y-69648998D01*
X101349589Y-69625685D01*
X101356355Y-69625500D01*
X104129164Y-69625500D01*
X104196203Y-69645185D01*
G37*
%TD.AperFunction*%
%TD*%
%TA.AperFunction,Conductor*%
%TO.N,gnd*%
G36*
X81405911Y-73419685D02*
G01*
X81451666Y-73472489D01*
X81462490Y-73533729D01*
X81461209Y-73549999D01*
X81461210Y-73550000D01*
X82116000Y-73550000D01*
X82183039Y-73569685D01*
X82228794Y-73622489D01*
X82240000Y-73674000D01*
X82240000Y-73800000D01*
X82366000Y-73800000D01*
X82433039Y-73819685D01*
X82478794Y-73872489D01*
X82490000Y-73924000D01*
X82490000Y-74876000D01*
X82470315Y-74943039D01*
X82417511Y-74988794D01*
X82366000Y-75000000D01*
X82240000Y-75000000D01*
X82240000Y-75126000D01*
X82220315Y-75193039D01*
X82167511Y-75238794D01*
X82116000Y-75250000D01*
X81461210Y-75250000D01*
X81462490Y-75266277D01*
X81459631Y-75279883D01*
X81461610Y-75293647D01*
X81452588Y-75313401D01*
X81448123Y-75334654D01*
X81438360Y-75344555D01*
X81432585Y-75357203D01*
X81414315Y-75368944D01*
X81399069Y-75384408D01*
X81384300Y-75388233D01*
X81373807Y-75394977D01*
X81338872Y-75400000D01*
X81124000Y-75400000D01*
X81056961Y-75380315D01*
X81011206Y-75327511D01*
X81000000Y-75276000D01*
X81000000Y-74749999D01*
X81461209Y-74749999D01*
X81461210Y-74750000D01*
X81990000Y-74750000D01*
X81990000Y-74050000D01*
X81461210Y-74050000D01*
X81462854Y-74070910D01*
X81507968Y-74226195D01*
X81573426Y-74336879D01*
X81590609Y-74404603D01*
X81573426Y-74463121D01*
X81507968Y-74573804D01*
X81507966Y-74573809D01*
X81462855Y-74729081D01*
X81462854Y-74729087D01*
X81461209Y-74749999D01*
X81000000Y-74749999D01*
X81000000Y-73524000D01*
X81019685Y-73456961D01*
X81072489Y-73411206D01*
X81124000Y-73400000D01*
X81338872Y-73400000D01*
X81405911Y-73419685D01*
G37*
%TD.AperFunction*%
%TD*%
M02*
