%TF.GenerationSoftware,KiCad,Pcbnew,9.0.6-9.0.6~ubuntu24.04.1*%
%TF.CreationDate,2025-12-02T22:29:15-06:00*%
%TF.ProjectId,Kicad_stm32_1st,4b696361-645f-4737-946d-33325f317374,rev?*%
%TF.SameCoordinates,Original*%
%TF.FileFunction,Copper,L2,Bot*%
%TF.FilePolarity,Positive*%
%FSLAX46Y46*%
G04 Gerber Fmt 4.6, Leading zero omitted, Abs format (unit mm)*
G04 Created by KiCad (PCBNEW 9.0.6-9.0.6~ubuntu24.04.1) date 2025-12-02 22:29:15*
%MOMM*%
%LPD*%
G01*
G04 APERTURE LIST*
%TA.AperFunction,HeatsinkPad*%
%ADD10O,2.100000X1.000000*%
%TD*%
%TA.AperFunction,HeatsinkPad*%
%ADD11O,1.800000X1.000000*%
%TD*%
%TA.AperFunction,ComponentPad*%
%ADD12R,1.700000X1.700000*%
%TD*%
%TA.AperFunction,ComponentPad*%
%ADD13C,1.700000*%
%TD*%
%TA.AperFunction,ViaPad*%
%ADD14C,0.600000*%
%TD*%
%TA.AperFunction,ViaPad*%
%ADD15C,0.700000*%
%TD*%
%TA.AperFunction,Conductor*%
%ADD16C,0.300000*%
%TD*%
%TA.AperFunction,Conductor*%
%ADD17C,0.200000*%
%TD*%
%TA.AperFunction,Conductor*%
%ADD18C,0.500000*%
%TD*%
G04 APERTURE END LIST*
D10*
%TO.P,J1,S1,SHIELD*%
%TO.N,gnd*%
X111985000Y-74120000D03*
D11*
X116165000Y-74120000D03*
D10*
X111985000Y-65480000D03*
D11*
X116165000Y-65480000D03*
%TD*%
D12*
%TO.P,J5,1,Pin_1*%
%TO.N,+3.3V*%
X80860000Y-82600000D03*
D13*
%TO.P,J5,2,Pin_2*%
%TO.N,/PA0*%
X83400000Y-82600000D03*
%TO.P,J5,3,Pin_3*%
%TO.N,/PA1*%
X85940000Y-82600000D03*
%TO.P,J5,4,Pin_4*%
%TO.N,/PA2*%
X88480000Y-82600000D03*
%TO.P,J5,5,Pin_5*%
%TO.N,/PA3*%
X91020000Y-82600000D03*
%TO.P,J5,6,Pin_6*%
%TO.N,/PA4*%
X93560000Y-82600000D03*
%TO.P,J5,7,Pin_7*%
%TO.N,/PA5*%
X96100000Y-82600000D03*
%TO.P,J5,8,Pin_8*%
%TO.N,/PA6*%
X98640000Y-82600000D03*
%TO.P,J5,9,Pin_9*%
%TO.N,/PA7*%
X101180000Y-82600000D03*
%TO.P,J5,10,Pin_10*%
%TO.N,+3.3V*%
X103720000Y-82600000D03*
%TO.P,J5,11,Pin_11*%
%TO.N,/I2C2_SCL*%
X106260000Y-82600000D03*
%TO.P,J5,12,Pin_12*%
%TO.N,/I2C2_SDA*%
X108800000Y-82600000D03*
%TO.P,J5,13,Pin_13*%
%TO.N,gnd*%
X111340000Y-82600000D03*
%TD*%
D12*
%TO.P,UART,1,Pin_1*%
%TO.N,+3.3V*%
X97340000Y-56200000D03*
D13*
%TO.P,UART,2,Pin_2*%
%TO.N,/USART1_TX*%
X94800000Y-56200000D03*
%TO.P,UART,3,Pin_3*%
%TO.N,/USART1_RX*%
X92260000Y-56200000D03*
%TO.P,UART,4,Pin_4*%
%TO.N,gnd*%
X89720000Y-56200000D03*
%TD*%
D12*
%TO.P,120R,1,A*%
%TO.N,/CANL*%
X76200000Y-62800000D03*
D13*
%TO.P,120R,2,B*%
%TO.N,Net-(JP1-B)*%
X73660000Y-62800000D03*
%TD*%
D12*
%TO.P,J2,1,Pin_1*%
%TO.N,+3.3V*%
X101200000Y-56200000D03*
D13*
%TO.P,J2,2,Pin_2*%
%TO.N,/SWDIO*%
X103740000Y-56200000D03*
%TO.P,J2,3,Pin_3*%
%TO.N,/SWCLK*%
X106280000Y-56200000D03*
%TO.P,J2,4,Pin_4*%
%TO.N,gnd*%
X108820000Y-56200000D03*
%TD*%
D12*
%TO.P,CAN,1,Pin_1*%
%TO.N,+3.3V*%
X78200000Y-56200000D03*
D13*
%TO.P,CAN,2,Pin_2*%
%TO.N,/CANH*%
X80740000Y-56200000D03*
%TO.P,CAN,3,Pin_3*%
%TO.N,/CANL*%
X83280000Y-56200000D03*
%TO.P,CAN,4,Pin_4*%
%TO.N,gnd*%
X85820000Y-56200000D03*
%TD*%
D14*
%TO.N,gnd*%
X109600000Y-69400000D03*
X98800000Y-74600000D03*
%TO.N,+3.3V*%
X89000000Y-68200000D03*
%TO.N,gnd*%
X89575000Y-61425000D03*
%TO.N,/CAN_RX*%
X90800000Y-63600000D03*
X84200000Y-63400000D03*
%TO.N,/CAN_TX*%
X80400000Y-63200000D03*
X90060000Y-64008926D03*
D15*
%TO.N,VBUS*%
X108800000Y-65600000D03*
X87800000Y-58200000D03*
D14*
%TO.N,gnd*%
X79600000Y-59000000D03*
X79600000Y-58200000D03*
X107200000Y-72600000D03*
X100200000Y-59000000D03*
X83000000Y-69600000D03*
X85800000Y-65400000D03*
X76800000Y-72400000D03*
X86600000Y-65400000D03*
X90000000Y-67600000D03*
X81400000Y-73800000D03*
X76800000Y-69800000D03*
X78800000Y-79200000D03*
X106400000Y-72600000D03*
X81400000Y-75000000D03*
X80400000Y-58200000D03*
X88800000Y-70800000D03*
X99400000Y-59000000D03*
X89400000Y-67200000D03*
X83800000Y-72600000D03*
X83000000Y-67750000D03*
X76800000Y-76800000D03*
X94800000Y-76800000D03*
X103344669Y-71144668D03*
X81600000Y-63200000D03*
X98400000Y-66800000D03*
%TO.N,+3.3V*%
X95400000Y-74000000D03*
X94200000Y-68200000D03*
%TD*%
D16*
%TO.N,+3.3V*%
X94200000Y-72800000D02*
X93600000Y-72800000D01*
X93600000Y-72800000D02*
X89000000Y-68200000D01*
X94149000Y-68251000D02*
X94200000Y-68200000D01*
X89000000Y-68200000D02*
X89051000Y-68251000D01*
X89051000Y-68251000D02*
X94149000Y-68251000D01*
D17*
%TO.N,/CAN_RX*%
X90600000Y-63400000D02*
X84200000Y-63400000D01*
X90800000Y-63600000D02*
X90600000Y-63400000D01*
X84200000Y-63400000D02*
X84200000Y-63408926D01*
%TO.N,/CAN_TX*%
X81208926Y-64008926D02*
X80400000Y-63200000D01*
X90060000Y-64008926D02*
X81208926Y-64008926D01*
D18*
%TO.N,VBUS*%
X101400000Y-58200000D02*
X108800000Y-65600000D01*
X87800000Y-58200000D02*
X101400000Y-58200000D01*
D16*
%TO.N,+3.3V*%
X95400000Y-74000000D02*
X94200000Y-72800000D01*
X94200000Y-72800000D02*
X94200000Y-68200000D01*
%TD*%
%TA.AperFunction,Conductor*%
%TO.N,gnd*%
G36*
X116003736Y-54300726D02*
G01*
X116293796Y-54318271D01*
X116308659Y-54320076D01*
X116590798Y-54371780D01*
X116605335Y-54375363D01*
X116879172Y-54460695D01*
X116893163Y-54466000D01*
X117154743Y-54583727D01*
X117167989Y-54590680D01*
X117413465Y-54739075D01*
X117425776Y-54747573D01*
X117651573Y-54924473D01*
X117662781Y-54934403D01*
X117865596Y-55137218D01*
X117875526Y-55148426D01*
X117998296Y-55305131D01*
X118052422Y-55374217D01*
X118060926Y-55386537D01*
X118099593Y-55450500D01*
X118209316Y-55632004D01*
X118216275Y-55645263D01*
X118333997Y-55906831D01*
X118339306Y-55920832D01*
X118424635Y-56194663D01*
X118428219Y-56209201D01*
X118479923Y-56491340D01*
X118481728Y-56506205D01*
X118499274Y-56796263D01*
X118499500Y-56803718D01*
X118499500Y-56865892D01*
X118499515Y-56865953D01*
X118499518Y-56873841D01*
X118506158Y-82796386D01*
X118505951Y-82803588D01*
X118489816Y-83082174D01*
X118488160Y-83096419D01*
X118440589Y-83367737D01*
X118437300Y-83381694D01*
X118358723Y-83645710D01*
X118353844Y-83659195D01*
X118245310Y-83912375D01*
X118238908Y-83925206D01*
X118101868Y-84164168D01*
X118094026Y-84176174D01*
X117930326Y-84397698D01*
X117921151Y-84408719D01*
X117732955Y-84609879D01*
X117722570Y-84619767D01*
X117512410Y-84797853D01*
X117500951Y-84806475D01*
X117271640Y-84959104D01*
X117259263Y-84966346D01*
X117013872Y-85091476D01*
X117000742Y-85097241D01*
X116742532Y-85193209D01*
X116728824Y-85197419D01*
X116461265Y-85262932D01*
X116447163Y-85265531D01*
X116183234Y-85298541D01*
X116167845Y-85299500D01*
X73386398Y-85299500D01*
X73378048Y-85299218D01*
X73348451Y-85297220D01*
X73118094Y-85281670D01*
X73102498Y-85279617D01*
X72850445Y-85230004D01*
X72835233Y-85225993D01*
X72591487Y-85144864D01*
X72576905Y-85138959D01*
X72345387Y-85027619D01*
X72331671Y-85019915D01*
X72116126Y-84880166D01*
X72103495Y-84870788D01*
X71907363Y-84704859D01*
X71896028Y-84693962D01*
X71722480Y-84504533D01*
X71712627Y-84492302D01*
X71564459Y-84282423D01*
X71556232Y-84269043D01*
X71435828Y-84042089D01*
X71429356Y-84027760D01*
X71400015Y-83950000D01*
X71338659Y-83787394D01*
X71334057Y-83772376D01*
X71274521Y-83522452D01*
X71271856Y-83506954D01*
X71270559Y-83494868D01*
X71244447Y-83251532D01*
X71243764Y-83235816D01*
X71246122Y-83118217D01*
X71248178Y-83015692D01*
X71251070Y-82994284D01*
X71251750Y-82988521D01*
X71251751Y-82988519D01*
X71251272Y-82952861D01*
X71251693Y-82940876D01*
X71254661Y-82905439D01*
X71252128Y-82891382D01*
X71250175Y-82871070D01*
X71247797Y-82693713D01*
X72049500Y-82693713D01*
X72049500Y-82906286D01*
X72072202Y-83049624D01*
X72082754Y-83116243D01*
X72126712Y-83251532D01*
X72148444Y-83318414D01*
X72244951Y-83507820D01*
X72369890Y-83679786D01*
X72520213Y-83830109D01*
X72692179Y-83955048D01*
X72692181Y-83955049D01*
X72692184Y-83955051D01*
X72881588Y-84051557D01*
X73083757Y-84117246D01*
X73293713Y-84150500D01*
X73293714Y-84150500D01*
X73506286Y-84150500D01*
X73506287Y-84150500D01*
X73716243Y-84117246D01*
X73918412Y-84051557D01*
X74107816Y-83955051D01*
X74129789Y-83939086D01*
X74279786Y-83830109D01*
X74279788Y-83830106D01*
X74279792Y-83830104D01*
X74430104Y-83679792D01*
X74430106Y-83679788D01*
X74430109Y-83679786D01*
X74555048Y-83507820D01*
X74555047Y-83507820D01*
X74555051Y-83507816D01*
X74651557Y-83318412D01*
X74717246Y-83116243D01*
X74750500Y-82906287D01*
X74750500Y-82693713D01*
X74717246Y-82483757D01*
X74651557Y-82281588D01*
X74555051Y-82092184D01*
X74555049Y-82092181D01*
X74555048Y-82092179D01*
X74430109Y-81920213D01*
X74279786Y-81769890D01*
X74190652Y-81705131D01*
X79709500Y-81705131D01*
X79709500Y-83494856D01*
X79709502Y-83494882D01*
X79712413Y-83519987D01*
X79712415Y-83519991D01*
X79757793Y-83622764D01*
X79757794Y-83622765D01*
X79837235Y-83702206D01*
X79940009Y-83747585D01*
X79965135Y-83750500D01*
X81754864Y-83750499D01*
X81754879Y-83750497D01*
X81754882Y-83750497D01*
X81779987Y-83747586D01*
X81779988Y-83747585D01*
X81779991Y-83747585D01*
X81882765Y-83702206D01*
X81962206Y-83622765D01*
X82007585Y-83519991D01*
X82010500Y-83494865D01*
X82010499Y-82757125D01*
X82030183Y-82690089D01*
X82082987Y-82644334D01*
X82152146Y-82634390D01*
X82215702Y-82663415D01*
X82253476Y-82722193D01*
X82256972Y-82737729D01*
X82277829Y-82869410D01*
X82333787Y-83041636D01*
X82333788Y-83041639D01*
X82416006Y-83202997D01*
X82522441Y-83349494D01*
X82522445Y-83349499D01*
X82650500Y-83477554D01*
X82650505Y-83477558D01*
X82712307Y-83522459D01*
X82797006Y-83583996D01*
X82873094Y-83622765D01*
X82958360Y-83666211D01*
X82958363Y-83666212D01*
X83044476Y-83694191D01*
X83130591Y-83722171D01*
X83213429Y-83735291D01*
X83309449Y-83750500D01*
X83309454Y-83750500D01*
X83490551Y-83750500D01*
X83577259Y-83736765D01*
X83669409Y-83722171D01*
X83841639Y-83666211D01*
X84002994Y-83583996D01*
X84149501Y-83477553D01*
X84277553Y-83349501D01*
X84383996Y-83202994D01*
X84466211Y-83041639D01*
X84522171Y-82869409D01*
X84536422Y-82779425D01*
X84547527Y-82709321D01*
X84577456Y-82646186D01*
X84636768Y-82609255D01*
X84706630Y-82610253D01*
X84764863Y-82648863D01*
X84792473Y-82709321D01*
X84817829Y-82869410D01*
X84873787Y-83041636D01*
X84873788Y-83041639D01*
X84956006Y-83202997D01*
X85062441Y-83349494D01*
X85062445Y-83349499D01*
X85190500Y-83477554D01*
X85190505Y-83477558D01*
X85252307Y-83522459D01*
X85337006Y-83583996D01*
X85413094Y-83622765D01*
X85498360Y-83666211D01*
X85498363Y-83666212D01*
X85584476Y-83694191D01*
X85670591Y-83722171D01*
X85753429Y-83735291D01*
X85849449Y-83750500D01*
X85849454Y-83750500D01*
X86030551Y-83750500D01*
X86117259Y-83736765D01*
X86209409Y-83722171D01*
X86381639Y-83666211D01*
X86542994Y-83583996D01*
X86689501Y-83477553D01*
X86817553Y-83349501D01*
X86923996Y-83202994D01*
X87006211Y-83041639D01*
X87062171Y-82869409D01*
X87076422Y-82779425D01*
X87087527Y-82709321D01*
X87117456Y-82646186D01*
X87176768Y-82609255D01*
X87246630Y-82610253D01*
X87304863Y-82648863D01*
X87332473Y-82709321D01*
X87357829Y-82869410D01*
X87413787Y-83041636D01*
X87413788Y-83041639D01*
X87496006Y-83202997D01*
X87602441Y-83349494D01*
X87602445Y-83349499D01*
X87730500Y-83477554D01*
X87730505Y-83477558D01*
X87792307Y-83522459D01*
X87877006Y-83583996D01*
X87953094Y-83622765D01*
X88038360Y-83666211D01*
X88038363Y-83666212D01*
X88124476Y-83694191D01*
X88210591Y-83722171D01*
X88293429Y-83735291D01*
X88389449Y-83750500D01*
X88389454Y-83750500D01*
X88570551Y-83750500D01*
X88657259Y-83736765D01*
X88749409Y-83722171D01*
X88921639Y-83666211D01*
X89082994Y-83583996D01*
X89229501Y-83477553D01*
X89357553Y-83349501D01*
X89463996Y-83202994D01*
X89546211Y-83041639D01*
X89602171Y-82869409D01*
X89616422Y-82779425D01*
X89627527Y-82709321D01*
X89657456Y-82646186D01*
X89716768Y-82609255D01*
X89786630Y-82610253D01*
X89844863Y-82648863D01*
X89872473Y-82709321D01*
X89897829Y-82869410D01*
X89953787Y-83041636D01*
X89953788Y-83041639D01*
X90036006Y-83202997D01*
X90142441Y-83349494D01*
X90142445Y-83349499D01*
X90270500Y-83477554D01*
X90270505Y-83477558D01*
X90332307Y-83522459D01*
X90417006Y-83583996D01*
X90493094Y-83622765D01*
X90578360Y-83666211D01*
X90578363Y-83666212D01*
X90664476Y-83694191D01*
X90750591Y-83722171D01*
X90833429Y-83735291D01*
X90929449Y-83750500D01*
X90929454Y-83750500D01*
X91110551Y-83750500D01*
X91197259Y-83736765D01*
X91289409Y-83722171D01*
X91461639Y-83666211D01*
X91622994Y-83583996D01*
X91769501Y-83477553D01*
X91897553Y-83349501D01*
X92003996Y-83202994D01*
X92086211Y-83041639D01*
X92142171Y-82869409D01*
X92156422Y-82779425D01*
X92167527Y-82709321D01*
X92197456Y-82646186D01*
X92256768Y-82609255D01*
X92326630Y-82610253D01*
X92384863Y-82648863D01*
X92412473Y-82709321D01*
X92437829Y-82869410D01*
X92493787Y-83041636D01*
X92493788Y-83041639D01*
X92576006Y-83202997D01*
X92682441Y-83349494D01*
X92682445Y-83349499D01*
X92810500Y-83477554D01*
X92810505Y-83477558D01*
X92872307Y-83522459D01*
X92957006Y-83583996D01*
X93033094Y-83622765D01*
X93118360Y-83666211D01*
X93118363Y-83666212D01*
X93204476Y-83694191D01*
X93290591Y-83722171D01*
X93373429Y-83735291D01*
X93469449Y-83750500D01*
X93469454Y-83750500D01*
X93650551Y-83750500D01*
X93737259Y-83736765D01*
X93829409Y-83722171D01*
X94001639Y-83666211D01*
X94162994Y-83583996D01*
X94309501Y-83477553D01*
X94437553Y-83349501D01*
X94543996Y-83202994D01*
X94626211Y-83041639D01*
X94682171Y-82869409D01*
X94696422Y-82779425D01*
X94707527Y-82709321D01*
X94737456Y-82646186D01*
X94796768Y-82609255D01*
X94866630Y-82610253D01*
X94924863Y-82648863D01*
X94952473Y-82709321D01*
X94977829Y-82869410D01*
X95033787Y-83041636D01*
X95033788Y-83041639D01*
X95116006Y-83202997D01*
X95222441Y-83349494D01*
X95222445Y-83349499D01*
X95350500Y-83477554D01*
X95350505Y-83477558D01*
X95412307Y-83522459D01*
X95497006Y-83583996D01*
X95573094Y-83622765D01*
X95658360Y-83666211D01*
X95658363Y-83666212D01*
X95744476Y-83694191D01*
X95830591Y-83722171D01*
X95913429Y-83735291D01*
X96009449Y-83750500D01*
X96009454Y-83750500D01*
X96190551Y-83750500D01*
X96277259Y-83736765D01*
X96369409Y-83722171D01*
X96541639Y-83666211D01*
X96702994Y-83583996D01*
X96849501Y-83477553D01*
X96977553Y-83349501D01*
X97083996Y-83202994D01*
X97166211Y-83041639D01*
X97222171Y-82869409D01*
X97236422Y-82779425D01*
X97247527Y-82709321D01*
X97277456Y-82646186D01*
X97336768Y-82609255D01*
X97406630Y-82610253D01*
X97464863Y-82648863D01*
X97492473Y-82709321D01*
X97517829Y-82869410D01*
X97573787Y-83041636D01*
X97573788Y-83041639D01*
X97656006Y-83202997D01*
X97762441Y-83349494D01*
X97762445Y-83349499D01*
X97890500Y-83477554D01*
X97890505Y-83477558D01*
X97952307Y-83522459D01*
X98037006Y-83583996D01*
X98113094Y-83622765D01*
X98198360Y-83666211D01*
X98198363Y-83666212D01*
X98284476Y-83694191D01*
X98370591Y-83722171D01*
X98453429Y-83735291D01*
X98549449Y-83750500D01*
X98549454Y-83750500D01*
X98730551Y-83750500D01*
X98817259Y-83736765D01*
X98909409Y-83722171D01*
X99081639Y-83666211D01*
X99242994Y-83583996D01*
X99389501Y-83477553D01*
X99517553Y-83349501D01*
X99623996Y-83202994D01*
X99706211Y-83041639D01*
X99762171Y-82869409D01*
X99776422Y-82779425D01*
X99787527Y-82709321D01*
X99817456Y-82646186D01*
X99876768Y-82609255D01*
X99946630Y-82610253D01*
X100004863Y-82648863D01*
X100032473Y-82709321D01*
X100057829Y-82869410D01*
X100113787Y-83041636D01*
X100113788Y-83041639D01*
X100196006Y-83202997D01*
X100302441Y-83349494D01*
X100302445Y-83349499D01*
X100430500Y-83477554D01*
X100430505Y-83477558D01*
X100492307Y-83522459D01*
X100577006Y-83583996D01*
X100653094Y-83622765D01*
X100738360Y-83666211D01*
X100738363Y-83666212D01*
X100824476Y-83694191D01*
X100910591Y-83722171D01*
X100993429Y-83735291D01*
X101089449Y-83750500D01*
X101089454Y-83750500D01*
X101270551Y-83750500D01*
X101357259Y-83736765D01*
X101449409Y-83722171D01*
X101621639Y-83666211D01*
X101782994Y-83583996D01*
X101929501Y-83477553D01*
X102057553Y-83349501D01*
X102163996Y-83202994D01*
X102246211Y-83041639D01*
X102302171Y-82869409D01*
X102316422Y-82779425D01*
X102327527Y-82709321D01*
X102357456Y-82646186D01*
X102416768Y-82609255D01*
X102486630Y-82610253D01*
X102544863Y-82648863D01*
X102572473Y-82709321D01*
X102597829Y-82869410D01*
X102653787Y-83041636D01*
X102653788Y-83041639D01*
X102736006Y-83202997D01*
X102842441Y-83349494D01*
X102842445Y-83349499D01*
X102970500Y-83477554D01*
X102970505Y-83477558D01*
X103032307Y-83522459D01*
X103117006Y-83583996D01*
X103193094Y-83622765D01*
X103278360Y-83666211D01*
X103278363Y-83666212D01*
X103364476Y-83694191D01*
X103450591Y-83722171D01*
X103533429Y-83735291D01*
X103629449Y-83750500D01*
X103629454Y-83750500D01*
X103810551Y-83750500D01*
X103897259Y-83736765D01*
X103989409Y-83722171D01*
X104161639Y-83666211D01*
X104322994Y-83583996D01*
X104469501Y-83477553D01*
X104597553Y-83349501D01*
X104703996Y-83202994D01*
X104786211Y-83041639D01*
X104842171Y-82869409D01*
X104856422Y-82779425D01*
X104867527Y-82709321D01*
X104897456Y-82646186D01*
X104956768Y-82609255D01*
X105026630Y-82610253D01*
X105084863Y-82648863D01*
X105112473Y-82709321D01*
X105137829Y-82869410D01*
X105193787Y-83041636D01*
X105193788Y-83041639D01*
X105276006Y-83202997D01*
X105382441Y-83349494D01*
X105382445Y-83349499D01*
X105510500Y-83477554D01*
X105510505Y-83477558D01*
X105572307Y-83522459D01*
X105657006Y-83583996D01*
X105733094Y-83622765D01*
X105818360Y-83666211D01*
X105818363Y-83666212D01*
X105904476Y-83694191D01*
X105990591Y-83722171D01*
X106073429Y-83735291D01*
X106169449Y-83750500D01*
X106169454Y-83750500D01*
X106350551Y-83750500D01*
X106437259Y-83736765D01*
X106529409Y-83722171D01*
X106701639Y-83666211D01*
X106862994Y-83583996D01*
X107009501Y-83477553D01*
X107137553Y-83349501D01*
X107243996Y-83202994D01*
X107326211Y-83041639D01*
X107382171Y-82869409D01*
X107396422Y-82779425D01*
X107407527Y-82709321D01*
X107437456Y-82646186D01*
X107496768Y-82609255D01*
X107566630Y-82610253D01*
X107624863Y-82648863D01*
X107652473Y-82709321D01*
X107677829Y-82869410D01*
X107733787Y-83041636D01*
X107733788Y-83041639D01*
X107816006Y-83202997D01*
X107922441Y-83349494D01*
X107922445Y-83349499D01*
X108050500Y-83477554D01*
X108050505Y-83477558D01*
X108112307Y-83522459D01*
X108197006Y-83583996D01*
X108273094Y-83622765D01*
X108358360Y-83666211D01*
X108358363Y-83666212D01*
X108444476Y-83694191D01*
X108530591Y-83722171D01*
X108613429Y-83735291D01*
X108709449Y-83750500D01*
X108709454Y-83750500D01*
X108890551Y-83750500D01*
X108977259Y-83736765D01*
X109069409Y-83722171D01*
X109241639Y-83666211D01*
X109402994Y-83583996D01*
X109507842Y-83507820D01*
X109549495Y-83477558D01*
X109549497Y-83477555D01*
X109549501Y-83477553D01*
X109677553Y-83349501D01*
X109783996Y-83202994D01*
X109851090Y-83071314D01*
X109899065Y-83020519D01*
X109966886Y-83003724D01*
X110033021Y-83026262D01*
X110076472Y-83080977D01*
X110079506Y-83089292D01*
X110088904Y-83118217D01*
X110185375Y-83307550D01*
X110224728Y-83361716D01*
X110857037Y-82729408D01*
X110874075Y-82792993D01*
X110939901Y-82907007D01*
X111032993Y-83000099D01*
X111147007Y-83065925D01*
X111210590Y-83082962D01*
X110578282Y-83715269D01*
X110578282Y-83715270D01*
X110632449Y-83754624D01*
X110821782Y-83851095D01*
X111023870Y-83916757D01*
X111233754Y-83950000D01*
X111446246Y-83950000D01*
X111656127Y-83916757D01*
X111656130Y-83916757D01*
X111858217Y-83851095D01*
X112047554Y-83754622D01*
X112101716Y-83715270D01*
X112101717Y-83715270D01*
X111469408Y-83082962D01*
X111532993Y-83065925D01*
X111647007Y-83000099D01*
X111740099Y-82907007D01*
X111805925Y-82792993D01*
X111822962Y-82729408D01*
X112455270Y-83361717D01*
X112455270Y-83361716D01*
X112494622Y-83307554D01*
X112591095Y-83118217D01*
X112656757Y-82916130D01*
X112656757Y-82916127D01*
X112690000Y-82706246D01*
X112690000Y-82693713D01*
X114649500Y-82693713D01*
X114649500Y-82906286D01*
X114672202Y-83049624D01*
X114682754Y-83116243D01*
X114726712Y-83251532D01*
X114748444Y-83318414D01*
X114844951Y-83507820D01*
X114969890Y-83679786D01*
X115120213Y-83830109D01*
X115292179Y-83955048D01*
X115292181Y-83955049D01*
X115292184Y-83955051D01*
X115481588Y-84051557D01*
X115683757Y-84117246D01*
X115893713Y-84150500D01*
X115893714Y-84150500D01*
X116106286Y-84150500D01*
X116106287Y-84150500D01*
X116316243Y-84117246D01*
X116518412Y-84051557D01*
X116707816Y-83955051D01*
X116729789Y-83939086D01*
X116879786Y-83830109D01*
X116879788Y-83830106D01*
X116879792Y-83830104D01*
X117030104Y-83679792D01*
X117030106Y-83679788D01*
X117030109Y-83679786D01*
X117155048Y-83507820D01*
X117155047Y-83507820D01*
X117155051Y-83507816D01*
X117251557Y-83318412D01*
X117317246Y-83116243D01*
X117350500Y-82906287D01*
X117350500Y-82693713D01*
X117317246Y-82483757D01*
X117251557Y-82281588D01*
X117155051Y-82092184D01*
X117155049Y-82092181D01*
X117155048Y-82092179D01*
X117030109Y-81920213D01*
X116879786Y-81769890D01*
X116707820Y-81644951D01*
X116518414Y-81548444D01*
X116518413Y-81548443D01*
X116518412Y-81548443D01*
X116316243Y-81482754D01*
X116316241Y-81482753D01*
X116316240Y-81482753D01*
X116124691Y-81452415D01*
X116106287Y-81449500D01*
X115893713Y-81449500D01*
X115875309Y-81452415D01*
X115683760Y-81482753D01*
X115481585Y-81548444D01*
X115292179Y-81644951D01*
X115120213Y-81769890D01*
X114969890Y-81920213D01*
X114844951Y-82092179D01*
X114748444Y-82281585D01*
X114682753Y-82483760D01*
X114649500Y-82693713D01*
X112690000Y-82693713D01*
X112690000Y-82493753D01*
X112656757Y-82283872D01*
X112656757Y-82283869D01*
X112591095Y-82081782D01*
X112494624Y-81892449D01*
X112455270Y-81838282D01*
X112455269Y-81838282D01*
X111822962Y-82470590D01*
X111805925Y-82407007D01*
X111740099Y-82292993D01*
X111647007Y-82199901D01*
X111532993Y-82134075D01*
X111469409Y-82117037D01*
X112101716Y-81484728D01*
X112047550Y-81445375D01*
X111858217Y-81348904D01*
X111656129Y-81283242D01*
X111446246Y-81250000D01*
X111233754Y-81250000D01*
X111023872Y-81283242D01*
X111023869Y-81283242D01*
X110821782Y-81348904D01*
X110632439Y-81445380D01*
X110578282Y-81484727D01*
X110578282Y-81484728D01*
X111210591Y-82117037D01*
X111147007Y-82134075D01*
X111032993Y-82199901D01*
X110939901Y-82292993D01*
X110874075Y-82407007D01*
X110857037Y-82470591D01*
X110224728Y-81838282D01*
X110224727Y-81838282D01*
X110185380Y-81892439D01*
X110088905Y-82081781D01*
X110079506Y-82110708D01*
X110040068Y-82168383D01*
X109975709Y-82195581D01*
X109906862Y-82183666D01*
X109855387Y-82136421D01*
X109851090Y-82128684D01*
X109827191Y-82081781D01*
X109783996Y-81997006D01*
X109728203Y-81920213D01*
X109677558Y-81850505D01*
X109677554Y-81850500D01*
X109549499Y-81722445D01*
X109549494Y-81722441D01*
X109425432Y-81632305D01*
X109402996Y-81616005D01*
X109241639Y-81533788D01*
X109241636Y-81533787D01*
X109069410Y-81477829D01*
X108890551Y-81449500D01*
X108890546Y-81449500D01*
X108709454Y-81449500D01*
X108709449Y-81449500D01*
X108530589Y-81477829D01*
X108358363Y-81533787D01*
X108358360Y-81533788D01*
X108197002Y-81616006D01*
X108050505Y-81722441D01*
X108050500Y-81722445D01*
X107922445Y-81850500D01*
X107922441Y-81850505D01*
X107816006Y-81997002D01*
X107733788Y-82158360D01*
X107733787Y-82158363D01*
X107677829Y-82330589D01*
X107652473Y-82490678D01*
X107622544Y-82553813D01*
X107563232Y-82590744D01*
X107493369Y-82589746D01*
X107435137Y-82551136D01*
X107407527Y-82490678D01*
X107393740Y-82403639D01*
X107382171Y-82330591D01*
X107339708Y-82199901D01*
X107326212Y-82158363D01*
X107326211Y-82158360D01*
X107287191Y-82081781D01*
X107243996Y-81997006D01*
X107188203Y-81920213D01*
X107137558Y-81850505D01*
X107137554Y-81850500D01*
X107009499Y-81722445D01*
X107009494Y-81722441D01*
X106862997Y-81616006D01*
X106862996Y-81616005D01*
X106862994Y-81616004D01*
X106786906Y-81577235D01*
X106701639Y-81533788D01*
X106701636Y-81533787D01*
X106529410Y-81477829D01*
X106350551Y-81449500D01*
X106350546Y-81449500D01*
X106169454Y-81449500D01*
X106169449Y-81449500D01*
X105990589Y-81477829D01*
X105818363Y-81533787D01*
X105818360Y-81533788D01*
X105657002Y-81616006D01*
X105510505Y-81722441D01*
X105510500Y-81722445D01*
X105382445Y-81850500D01*
X105382441Y-81850505D01*
X105276006Y-81997002D01*
X105193788Y-82158360D01*
X105193787Y-82158363D01*
X105137829Y-82330589D01*
X105112473Y-82490678D01*
X105082544Y-82553813D01*
X105023232Y-82590744D01*
X104953369Y-82589746D01*
X104895137Y-82551136D01*
X104867527Y-82490678D01*
X104853740Y-82403639D01*
X104842171Y-82330591D01*
X104799708Y-82199901D01*
X104786212Y-82158363D01*
X104786211Y-82158360D01*
X104747191Y-82081781D01*
X104703996Y-81997006D01*
X104648203Y-81920213D01*
X104597558Y-81850505D01*
X104597554Y-81850500D01*
X104469499Y-81722445D01*
X104469494Y-81722441D01*
X104322997Y-81616006D01*
X104322996Y-81616005D01*
X104322994Y-81616004D01*
X104246906Y-81577235D01*
X104161639Y-81533788D01*
X104161636Y-81533787D01*
X103989410Y-81477829D01*
X103810551Y-81449500D01*
X103810546Y-81449500D01*
X103629454Y-81449500D01*
X103629449Y-81449500D01*
X103450589Y-81477829D01*
X103278363Y-81533787D01*
X103278360Y-81533788D01*
X103117002Y-81616006D01*
X102970505Y-81722441D01*
X102970500Y-81722445D01*
X102842445Y-81850500D01*
X102842441Y-81850505D01*
X102736006Y-81997002D01*
X102653788Y-82158360D01*
X102653787Y-82158363D01*
X102597829Y-82330589D01*
X102572473Y-82490678D01*
X102542544Y-82553813D01*
X102483232Y-82590744D01*
X102413369Y-82589746D01*
X102355137Y-82551136D01*
X102327527Y-82490678D01*
X102313740Y-82403639D01*
X102302171Y-82330591D01*
X102259708Y-82199901D01*
X102246212Y-82158363D01*
X102246211Y-82158360D01*
X102207191Y-82081781D01*
X102163996Y-81997006D01*
X102108203Y-81920213D01*
X102057558Y-81850505D01*
X102057554Y-81850500D01*
X101929499Y-81722445D01*
X101929494Y-81722441D01*
X101782997Y-81616006D01*
X101782996Y-81616005D01*
X101782994Y-81616004D01*
X101706906Y-81577235D01*
X101621639Y-81533788D01*
X101621636Y-81533787D01*
X101449410Y-81477829D01*
X101270551Y-81449500D01*
X101270546Y-81449500D01*
X101089454Y-81449500D01*
X101089449Y-81449500D01*
X100910589Y-81477829D01*
X100738363Y-81533787D01*
X100738360Y-81533788D01*
X100577002Y-81616006D01*
X100430505Y-81722441D01*
X100430500Y-81722445D01*
X100302445Y-81850500D01*
X100302441Y-81850505D01*
X100196006Y-81997002D01*
X100113788Y-82158360D01*
X100113787Y-82158363D01*
X100057829Y-82330589D01*
X100032473Y-82490678D01*
X100002544Y-82553813D01*
X99943232Y-82590744D01*
X99873369Y-82589746D01*
X99815137Y-82551136D01*
X99787527Y-82490678D01*
X99773740Y-82403639D01*
X99762171Y-82330591D01*
X99719708Y-82199901D01*
X99706212Y-82158363D01*
X99706211Y-82158360D01*
X99667191Y-82081781D01*
X99623996Y-81997006D01*
X99568203Y-81920213D01*
X99517558Y-81850505D01*
X99517554Y-81850500D01*
X99389499Y-81722445D01*
X99389494Y-81722441D01*
X99242997Y-81616006D01*
X99242996Y-81616005D01*
X99242994Y-81616004D01*
X99166906Y-81577235D01*
X99081639Y-81533788D01*
X99081636Y-81533787D01*
X98909410Y-81477829D01*
X98730551Y-81449500D01*
X98730546Y-81449500D01*
X98549454Y-81449500D01*
X98549449Y-81449500D01*
X98370589Y-81477829D01*
X98198363Y-81533787D01*
X98198360Y-81533788D01*
X98037002Y-81616006D01*
X97890505Y-81722441D01*
X97890500Y-81722445D01*
X97762445Y-81850500D01*
X97762441Y-81850505D01*
X97656006Y-81997002D01*
X97573788Y-82158360D01*
X97573787Y-82158363D01*
X97517829Y-82330589D01*
X97492473Y-82490678D01*
X97462544Y-82553813D01*
X97403232Y-82590744D01*
X97333369Y-82589746D01*
X97275137Y-82551136D01*
X97247527Y-82490678D01*
X97233740Y-82403639D01*
X97222171Y-82330591D01*
X97179708Y-82199901D01*
X97166212Y-82158363D01*
X97166211Y-82158360D01*
X97127191Y-82081781D01*
X97083996Y-81997006D01*
X97028203Y-81920213D01*
X96977558Y-81850505D01*
X96977554Y-81850500D01*
X96849499Y-81722445D01*
X96849494Y-81722441D01*
X96702997Y-81616006D01*
X96702996Y-81616005D01*
X96702994Y-81616004D01*
X96626906Y-81577235D01*
X96541639Y-81533788D01*
X96541636Y-81533787D01*
X96369410Y-81477829D01*
X96190551Y-81449500D01*
X96190546Y-81449500D01*
X96009454Y-81449500D01*
X96009449Y-81449500D01*
X95830589Y-81477829D01*
X95658363Y-81533787D01*
X95658360Y-81533788D01*
X95497002Y-81616006D01*
X95350505Y-81722441D01*
X95350500Y-81722445D01*
X95222445Y-81850500D01*
X95222441Y-81850505D01*
X95116006Y-81997002D01*
X95033788Y-82158360D01*
X95033787Y-82158363D01*
X94977829Y-82330589D01*
X94952473Y-82490678D01*
X94922544Y-82553813D01*
X94863232Y-82590744D01*
X94793369Y-82589746D01*
X94735137Y-82551136D01*
X94707527Y-82490678D01*
X94693740Y-82403639D01*
X94682171Y-82330591D01*
X94639708Y-82199901D01*
X94626212Y-82158363D01*
X94626211Y-82158360D01*
X94587191Y-82081781D01*
X94543996Y-81997006D01*
X94488203Y-81920213D01*
X94437558Y-81850505D01*
X94437554Y-81850500D01*
X94309499Y-81722445D01*
X94309494Y-81722441D01*
X94162997Y-81616006D01*
X94162996Y-81616005D01*
X94162994Y-81616004D01*
X94086906Y-81577235D01*
X94001639Y-81533788D01*
X94001636Y-81533787D01*
X93829410Y-81477829D01*
X93650551Y-81449500D01*
X93650546Y-81449500D01*
X93469454Y-81449500D01*
X93469449Y-81449500D01*
X93290589Y-81477829D01*
X93118363Y-81533787D01*
X93118360Y-81533788D01*
X92957002Y-81616006D01*
X92810505Y-81722441D01*
X92810500Y-81722445D01*
X92682445Y-81850500D01*
X92682441Y-81850505D01*
X92576006Y-81997002D01*
X92493788Y-82158360D01*
X92493787Y-82158363D01*
X92437829Y-82330589D01*
X92412473Y-82490678D01*
X92382544Y-82553813D01*
X92323232Y-82590744D01*
X92253369Y-82589746D01*
X92195137Y-82551136D01*
X92167527Y-82490678D01*
X92153740Y-82403639D01*
X92142171Y-82330591D01*
X92099708Y-82199901D01*
X92086212Y-82158363D01*
X92086211Y-82158360D01*
X92047191Y-82081781D01*
X92003996Y-81997006D01*
X91948203Y-81920213D01*
X91897558Y-81850505D01*
X91897554Y-81850500D01*
X91769499Y-81722445D01*
X91769494Y-81722441D01*
X91622997Y-81616006D01*
X91622996Y-81616005D01*
X91622994Y-81616004D01*
X91546906Y-81577235D01*
X91461639Y-81533788D01*
X91461636Y-81533787D01*
X91289410Y-81477829D01*
X91110551Y-81449500D01*
X91110546Y-81449500D01*
X90929454Y-81449500D01*
X90929449Y-81449500D01*
X90750589Y-81477829D01*
X90578363Y-81533787D01*
X90578360Y-81533788D01*
X90417002Y-81616006D01*
X90270505Y-81722441D01*
X90270500Y-81722445D01*
X90142445Y-81850500D01*
X90142441Y-81850505D01*
X90036006Y-81997002D01*
X89953788Y-82158360D01*
X89953787Y-82158363D01*
X89897829Y-82330589D01*
X89872473Y-82490678D01*
X89842544Y-82553813D01*
X89783232Y-82590744D01*
X89713369Y-82589746D01*
X89655137Y-82551136D01*
X89627527Y-82490678D01*
X89613740Y-82403639D01*
X89602171Y-82330591D01*
X89559708Y-82199901D01*
X89546212Y-82158363D01*
X89546211Y-82158360D01*
X89507191Y-82081781D01*
X89463996Y-81997006D01*
X89408203Y-81920213D01*
X89357558Y-81850505D01*
X89357554Y-81850500D01*
X89229499Y-81722445D01*
X89229494Y-81722441D01*
X89082997Y-81616006D01*
X89082996Y-81616005D01*
X89082994Y-81616004D01*
X89006906Y-81577235D01*
X88921639Y-81533788D01*
X88921636Y-81533787D01*
X88749410Y-81477829D01*
X88570551Y-81449500D01*
X88570546Y-81449500D01*
X88389454Y-81449500D01*
X88389449Y-81449500D01*
X88210589Y-81477829D01*
X88038363Y-81533787D01*
X88038360Y-81533788D01*
X87877002Y-81616006D01*
X87730505Y-81722441D01*
X87730500Y-81722445D01*
X87602445Y-81850500D01*
X87602441Y-81850505D01*
X87496006Y-81997002D01*
X87413788Y-82158360D01*
X87413787Y-82158363D01*
X87357829Y-82330589D01*
X87332473Y-82490678D01*
X87302544Y-82553813D01*
X87243232Y-82590744D01*
X87173369Y-82589746D01*
X87115137Y-82551136D01*
X87087527Y-82490678D01*
X87073740Y-82403639D01*
X87062171Y-82330591D01*
X87019708Y-82199901D01*
X87006212Y-82158363D01*
X87006211Y-82158360D01*
X86967191Y-82081781D01*
X86923996Y-81997006D01*
X86868203Y-81920213D01*
X86817558Y-81850505D01*
X86817554Y-81850500D01*
X86689499Y-81722445D01*
X86689494Y-81722441D01*
X86542997Y-81616006D01*
X86542996Y-81616005D01*
X86542994Y-81616004D01*
X86466906Y-81577235D01*
X86381639Y-81533788D01*
X86381636Y-81533787D01*
X86209410Y-81477829D01*
X86030551Y-81449500D01*
X86030546Y-81449500D01*
X85849454Y-81449500D01*
X85849449Y-81449500D01*
X85670589Y-81477829D01*
X85498363Y-81533787D01*
X85498360Y-81533788D01*
X85337002Y-81616006D01*
X85190505Y-81722441D01*
X85190500Y-81722445D01*
X85062445Y-81850500D01*
X85062441Y-81850505D01*
X84956006Y-81997002D01*
X84873788Y-82158360D01*
X84873787Y-82158363D01*
X84817829Y-82330589D01*
X84792473Y-82490678D01*
X84762544Y-82553813D01*
X84703232Y-82590744D01*
X84633369Y-82589746D01*
X84575137Y-82551136D01*
X84547527Y-82490678D01*
X84533740Y-82403639D01*
X84522171Y-82330591D01*
X84479708Y-82199901D01*
X84466212Y-82158363D01*
X84466211Y-82158360D01*
X84427191Y-82081781D01*
X84383996Y-81997006D01*
X84328203Y-81920213D01*
X84277558Y-81850505D01*
X84277554Y-81850500D01*
X84149499Y-81722445D01*
X84149494Y-81722441D01*
X84002997Y-81616006D01*
X84002996Y-81616005D01*
X84002994Y-81616004D01*
X83926906Y-81577235D01*
X83841639Y-81533788D01*
X83841636Y-81533787D01*
X83669410Y-81477829D01*
X83490551Y-81449500D01*
X83490546Y-81449500D01*
X83309454Y-81449500D01*
X83309449Y-81449500D01*
X83130589Y-81477829D01*
X82958363Y-81533787D01*
X82958360Y-81533788D01*
X82797002Y-81616006D01*
X82650505Y-81722441D01*
X82650500Y-81722445D01*
X82522445Y-81850500D01*
X82522441Y-81850505D01*
X82416006Y-81997002D01*
X82333788Y-82158360D01*
X82333787Y-82158363D01*
X82277829Y-82330589D01*
X82256972Y-82462271D01*
X82227042Y-82525405D01*
X82167731Y-82562336D01*
X82097868Y-82561338D01*
X82039636Y-82522728D01*
X82011522Y-82458764D01*
X82010499Y-82442872D01*
X82010499Y-81705143D01*
X82010499Y-81705136D01*
X82010497Y-81705117D01*
X82007586Y-81680012D01*
X82007585Y-81680010D01*
X82007585Y-81680009D01*
X81962206Y-81577235D01*
X81882765Y-81497794D01*
X81882763Y-81497793D01*
X81779992Y-81452415D01*
X81754865Y-81449500D01*
X79965143Y-81449500D01*
X79965117Y-81449502D01*
X79940012Y-81452413D01*
X79940008Y-81452415D01*
X79837235Y-81497793D01*
X79757794Y-81577234D01*
X79712415Y-81680006D01*
X79712415Y-81680008D01*
X79709500Y-81705131D01*
X74190652Y-81705131D01*
X74107820Y-81644951D01*
X73918414Y-81548444D01*
X73918413Y-81548443D01*
X73918412Y-81548443D01*
X73716243Y-81482754D01*
X73716241Y-81482753D01*
X73716240Y-81482753D01*
X73524691Y-81452415D01*
X73506287Y-81449500D01*
X73293713Y-81449500D01*
X73275309Y-81452415D01*
X73083760Y-81482753D01*
X72881585Y-81548444D01*
X72692179Y-81644951D01*
X72520213Y-81769890D01*
X72369890Y-81920213D01*
X72244951Y-82092179D01*
X72148444Y-82281585D01*
X72082753Y-82483760D01*
X72049500Y-82693713D01*
X71247797Y-82693713D01*
X71052366Y-68120943D01*
X88399500Y-68120943D01*
X88399500Y-68279056D01*
X88440423Y-68431783D01*
X88440426Y-68431790D01*
X88519475Y-68568709D01*
X88519479Y-68568714D01*
X88519480Y-68568716D01*
X88631284Y-68680520D01*
X88631286Y-68680521D01*
X88631290Y-68680524D01*
X88701718Y-68721185D01*
X88768216Y-68759577D01*
X88920943Y-68800500D01*
X88920945Y-68800500D01*
X88928099Y-68801442D01*
X88991996Y-68829707D01*
X88999597Y-68836700D01*
X93323386Y-73160489D01*
X93323387Y-73160490D01*
X93323389Y-73160491D01*
X93382693Y-73194729D01*
X93382696Y-73194732D01*
X93416937Y-73214500D01*
X93426114Y-73219799D01*
X93540691Y-73250500D01*
X93962035Y-73250500D01*
X94029074Y-73270185D01*
X94049716Y-73286819D01*
X94763299Y-74000402D01*
X94796784Y-74061725D01*
X94798556Y-74071893D01*
X94799498Y-74079050D01*
X94840423Y-74231783D01*
X94840426Y-74231790D01*
X94919475Y-74368709D01*
X94919479Y-74368714D01*
X94919480Y-74368716D01*
X95031284Y-74480520D01*
X95031286Y-74480521D01*
X95031290Y-74480524D01*
X95168209Y-74559573D01*
X95168216Y-74559577D01*
X95320943Y-74600500D01*
X95320945Y-74600500D01*
X95479055Y-74600500D01*
X95479057Y-74600500D01*
X95631784Y-74559577D01*
X95768716Y-74480520D01*
X95880520Y-74368716D01*
X95959577Y-74231784D01*
X96000500Y-74079057D01*
X96000500Y-73920943D01*
X95986850Y-73870000D01*
X110465138Y-73870000D01*
X111268012Y-73870000D01*
X111250795Y-73879940D01*
X111194940Y-73935795D01*
X111155444Y-74004204D01*
X111135000Y-74080504D01*
X111135000Y-74159496D01*
X111155444Y-74235796D01*
X111194940Y-74304205D01*
X111250795Y-74360060D01*
X111268012Y-74370000D01*
X110465138Y-74370000D01*
X110473430Y-74411690D01*
X110473430Y-74411692D01*
X110548807Y-74593671D01*
X110548814Y-74593684D01*
X110658248Y-74757462D01*
X110658251Y-74757466D01*
X110797533Y-74896748D01*
X110797537Y-74896751D01*
X110961315Y-75006185D01*
X110961328Y-75006192D01*
X111143306Y-75081569D01*
X111143318Y-75081572D01*
X111336504Y-75119999D01*
X111336508Y-75120000D01*
X111735000Y-75120000D01*
X111735000Y-74420000D01*
X112235000Y-74420000D01*
X112235000Y-75120000D01*
X112633492Y-75120000D01*
X112633495Y-75119999D01*
X112826681Y-75081572D01*
X112826693Y-75081569D01*
X113008671Y-75006192D01*
X113008684Y-75006185D01*
X113172462Y-74896751D01*
X113172466Y-74896748D01*
X113311748Y-74757466D01*
X113311751Y-74757462D01*
X113421185Y-74593684D01*
X113421192Y-74593671D01*
X113496569Y-74411692D01*
X113496569Y-74411690D01*
X113504862Y-74370000D01*
X112701988Y-74370000D01*
X112719205Y-74360060D01*
X112775060Y-74304205D01*
X112814556Y-74235796D01*
X112835000Y-74159496D01*
X112835000Y-74080504D01*
X112814556Y-74004204D01*
X112775060Y-73935795D01*
X112719205Y-73879940D01*
X112701988Y-73870000D01*
X113504862Y-73870000D01*
X114795138Y-73870000D01*
X115598012Y-73870000D01*
X115580795Y-73879940D01*
X115524940Y-73935795D01*
X115485444Y-74004204D01*
X115465000Y-74080504D01*
X115465000Y-74159496D01*
X115485444Y-74235796D01*
X115524940Y-74304205D01*
X115580795Y-74360060D01*
X115598012Y-74370000D01*
X114795138Y-74370000D01*
X114803430Y-74411690D01*
X114803430Y-74411692D01*
X114878807Y-74593671D01*
X114878814Y-74593684D01*
X114988248Y-74757462D01*
X114988251Y-74757466D01*
X115127533Y-74896748D01*
X115127537Y-74896751D01*
X115291315Y-75006185D01*
X115291328Y-75006192D01*
X115473306Y-75081569D01*
X115473318Y-75081572D01*
X115666504Y-75119999D01*
X115666508Y-75120000D01*
X115915000Y-75120000D01*
X115915000Y-74420000D01*
X116415000Y-74420000D01*
X116415000Y-75120000D01*
X116663492Y-75120000D01*
X116663495Y-75119999D01*
X116856681Y-75081572D01*
X116856693Y-75081569D01*
X117038671Y-75006192D01*
X117038684Y-75006185D01*
X117202462Y-74896751D01*
X117202466Y-74896748D01*
X117341748Y-74757466D01*
X117341751Y-74757462D01*
X117451185Y-74593684D01*
X117451192Y-74593671D01*
X117526569Y-74411692D01*
X117526569Y-74411690D01*
X117534862Y-74370000D01*
X116731988Y-74370000D01*
X116749205Y-74360060D01*
X116805060Y-74304205D01*
X116844556Y-74235796D01*
X116865000Y-74159496D01*
X116865000Y-74080504D01*
X116844556Y-74004204D01*
X116805060Y-73935795D01*
X116749205Y-73879940D01*
X116731988Y-73870000D01*
X117534862Y-73870000D01*
X117526569Y-73828309D01*
X117526569Y-73828307D01*
X117451192Y-73646328D01*
X117451185Y-73646315D01*
X117341751Y-73482537D01*
X117341748Y-73482533D01*
X117202466Y-73343251D01*
X117202462Y-73343248D01*
X117038684Y-73233814D01*
X117038671Y-73233807D01*
X116856693Y-73158430D01*
X116856681Y-73158427D01*
X116663495Y-73120000D01*
X116415000Y-73120000D01*
X116415000Y-73820000D01*
X115915000Y-73820000D01*
X115915000Y-73120000D01*
X115666504Y-73120000D01*
X115473318Y-73158427D01*
X115473306Y-73158430D01*
X115291328Y-73233807D01*
X115291315Y-73233814D01*
X115127537Y-73343248D01*
X115127533Y-73343251D01*
X114988251Y-73482533D01*
X114988248Y-73482537D01*
X114878814Y-73646315D01*
X114878807Y-73646328D01*
X114803430Y-73828307D01*
X114803430Y-73828309D01*
X114795138Y-73870000D01*
X113504862Y-73870000D01*
X113496569Y-73828309D01*
X113496569Y-73828307D01*
X113421192Y-73646328D01*
X113421185Y-73646315D01*
X113311751Y-73482537D01*
X113311748Y-73482533D01*
X113172466Y-73343251D01*
X113172462Y-73343248D01*
X113008684Y-73233814D01*
X113008674Y-73233809D01*
X112999157Y-73229867D01*
X112944754Y-73186026D01*
X112922689Y-73119731D01*
X112939969Y-73052032D01*
X112943648Y-73046597D01*
X112945512Y-73043367D01*
X112945515Y-73043365D01*
X113021281Y-72912135D01*
X113060500Y-72765766D01*
X113060500Y-72614234D01*
X113021281Y-72467865D01*
X112945515Y-72336635D01*
X112838365Y-72229485D01*
X112772750Y-72191602D01*
X112707136Y-72153719D01*
X112633950Y-72134109D01*
X112560766Y-72114500D01*
X112409234Y-72114500D01*
X112262863Y-72153719D01*
X112131635Y-72229485D01*
X112131632Y-72229487D01*
X112024487Y-72336632D01*
X112024485Y-72336635D01*
X111948719Y-72467863D01*
X111909500Y-72614234D01*
X111909500Y-72765765D01*
X111948719Y-72912136D01*
X111986602Y-72977750D01*
X112024485Y-73043365D01*
X112131635Y-73150515D01*
X112173000Y-73174397D01*
X112221216Y-73224964D01*
X112235000Y-73281784D01*
X112235000Y-73820000D01*
X111735000Y-73820000D01*
X111735000Y-73120000D01*
X111336504Y-73120000D01*
X111143318Y-73158427D01*
X111143306Y-73158430D01*
X110961328Y-73233807D01*
X110961315Y-73233814D01*
X110797537Y-73343248D01*
X110797533Y-73343251D01*
X110658251Y-73482533D01*
X110658248Y-73482537D01*
X110548814Y-73646315D01*
X110548807Y-73646328D01*
X110473430Y-73828307D01*
X110473430Y-73828309D01*
X110465138Y-73870000D01*
X95986850Y-73870000D01*
X95959577Y-73768216D01*
X95889206Y-73646328D01*
X95880524Y-73631290D01*
X95880518Y-73631282D01*
X95768717Y-73519481D01*
X95768709Y-73519475D01*
X95631790Y-73440426D01*
X95631786Y-73440424D01*
X95631784Y-73440423D01*
X95479057Y-73399500D01*
X95479050Y-73399498D01*
X95471893Y-73398556D01*
X95407997Y-73370287D01*
X95400402Y-73363299D01*
X94686819Y-72649716D01*
X94653334Y-72588393D01*
X94650500Y-72562035D01*
X94650500Y-68649930D01*
X94670185Y-68582891D01*
X94676128Y-68574438D01*
X94680512Y-68568723D01*
X94680520Y-68568716D01*
X94759577Y-68431784D01*
X94800500Y-68279057D01*
X94800500Y-68120943D01*
X94759577Y-67968216D01*
X94759573Y-67968209D01*
X94680524Y-67831290D01*
X94680518Y-67831282D01*
X94568717Y-67719481D01*
X94568709Y-67719475D01*
X94431790Y-67640426D01*
X94431786Y-67640424D01*
X94431784Y-67640423D01*
X94279057Y-67599500D01*
X94120943Y-67599500D01*
X93968216Y-67640423D01*
X93968209Y-67640426D01*
X93831290Y-67719475D01*
X93831282Y-67719481D01*
X93786583Y-67764181D01*
X93725260Y-67797666D01*
X93698902Y-67800500D01*
X89501098Y-67800500D01*
X89434059Y-67780815D01*
X89413417Y-67764181D01*
X89368717Y-67719481D01*
X89368709Y-67719475D01*
X89231790Y-67640426D01*
X89231786Y-67640424D01*
X89231784Y-67640423D01*
X89079057Y-67599500D01*
X88920943Y-67599500D01*
X88768216Y-67640423D01*
X88768209Y-67640426D01*
X88631290Y-67719475D01*
X88631282Y-67719481D01*
X88519481Y-67831282D01*
X88519475Y-67831290D01*
X88440426Y-67968209D01*
X88440423Y-67968216D01*
X88399500Y-68120943D01*
X71052366Y-68120943D01*
X70979794Y-62709448D01*
X72509500Y-62709448D01*
X72509500Y-62890551D01*
X72537829Y-63069410D01*
X72593787Y-63241636D01*
X72593788Y-63241639D01*
X72676006Y-63402997D01*
X72782441Y-63549494D01*
X72782445Y-63549499D01*
X72910500Y-63677554D01*
X72910505Y-63677558D01*
X73023396Y-63759577D01*
X73057006Y-63783996D01*
X73160676Y-63836819D01*
X73218360Y-63866211D01*
X73218363Y-63866212D01*
X73304476Y-63894191D01*
X73390591Y-63922171D01*
X73473429Y-63935291D01*
X73569449Y-63950500D01*
X73569454Y-63950500D01*
X73750551Y-63950500D01*
X73837259Y-63936765D01*
X73929409Y-63922171D01*
X74101639Y-63866211D01*
X74262994Y-63783996D01*
X74409501Y-63677553D01*
X74537553Y-63549501D01*
X74643996Y-63402994D01*
X74726211Y-63241639D01*
X74782171Y-63069409D01*
X74803027Y-62937729D01*
X74832956Y-62874595D01*
X74892267Y-62837663D01*
X74962130Y-62838661D01*
X75020363Y-62877271D01*
X75048477Y-62941234D01*
X75049500Y-62957127D01*
X75049500Y-63694856D01*
X75049502Y-63694882D01*
X75052413Y-63719987D01*
X75052415Y-63719991D01*
X75097793Y-63822764D01*
X75097794Y-63822765D01*
X75177235Y-63902206D01*
X75280009Y-63947585D01*
X75305135Y-63950500D01*
X77094864Y-63950499D01*
X77094879Y-63950497D01*
X77094882Y-63950497D01*
X77119987Y-63947586D01*
X77119988Y-63947585D01*
X77119991Y-63947585D01*
X77222765Y-63902206D01*
X77302206Y-63822765D01*
X77347585Y-63719991D01*
X77350500Y-63694865D01*
X77350499Y-63120943D01*
X79799500Y-63120943D01*
X79799500Y-63279057D01*
X79810724Y-63320943D01*
X79840423Y-63431783D01*
X79840426Y-63431790D01*
X79919475Y-63568709D01*
X79919479Y-63568714D01*
X79919480Y-63568716D01*
X80031284Y-63680520D01*
X80031286Y-63680521D01*
X80031290Y-63680524D01*
X80168209Y-63759573D01*
X80168216Y-63759577D01*
X80320943Y-63800500D01*
X80382745Y-63800500D01*
X80449784Y-63820185D01*
X80470426Y-63836819D01*
X80963013Y-64329406D01*
X81042100Y-64375067D01*
X81046552Y-64377638D01*
X81054338Y-64382133D01*
X81156199Y-64409426D01*
X89559902Y-64409426D01*
X89626941Y-64429111D01*
X89647583Y-64445745D01*
X89691284Y-64489446D01*
X89691286Y-64489447D01*
X89691290Y-64489450D01*
X89741486Y-64518430D01*
X89828216Y-64568503D01*
X89980943Y-64609426D01*
X89980945Y-64609426D01*
X90139055Y-64609426D01*
X90139057Y-64609426D01*
X90291784Y-64568503D01*
X90428716Y-64489446D01*
X90540520Y-64377642D01*
X90606997Y-64262500D01*
X90657563Y-64214285D01*
X90714384Y-64200500D01*
X90879055Y-64200500D01*
X90879057Y-64200500D01*
X91031784Y-64159577D01*
X91168716Y-64080520D01*
X91280520Y-63968716D01*
X91359577Y-63831784D01*
X91400500Y-63679057D01*
X91400500Y-63520943D01*
X91359577Y-63368216D01*
X91308101Y-63279056D01*
X91280524Y-63231290D01*
X91280518Y-63231282D01*
X91168717Y-63119481D01*
X91168709Y-63119475D01*
X91031790Y-63040426D01*
X91031786Y-63040424D01*
X91031784Y-63040423D01*
X90879057Y-62999500D01*
X90720943Y-62999500D01*
X90718924Y-63000041D01*
X90716836Y-63000041D01*
X90712887Y-63000561D01*
X90712819Y-63000041D01*
X90660851Y-63000041D01*
X90660783Y-63000561D01*
X90656834Y-63000041D01*
X90654746Y-63000041D01*
X90652727Y-62999500D01*
X90652726Y-62999500D01*
X84700098Y-62999500D01*
X84633059Y-62979815D01*
X84612417Y-62963181D01*
X84568717Y-62919481D01*
X84568709Y-62919475D01*
X84431790Y-62840426D01*
X84431786Y-62840424D01*
X84431784Y-62840423D01*
X84279057Y-62799500D01*
X84120943Y-62799500D01*
X83968216Y-62840423D01*
X83968209Y-62840426D01*
X83831290Y-62919475D01*
X83831282Y-62919481D01*
X83719481Y-63031282D01*
X83719475Y-63031290D01*
X83640426Y-63168209D01*
X83640423Y-63168216D01*
X83599500Y-63320943D01*
X83599500Y-63484426D01*
X83579815Y-63551465D01*
X83527011Y-63597220D01*
X83475500Y-63608426D01*
X81426181Y-63608426D01*
X81359142Y-63588741D01*
X81338500Y-63572107D01*
X81036819Y-63270426D01*
X81003334Y-63209103D01*
X81000500Y-63182745D01*
X81000500Y-63120945D01*
X81000500Y-63120943D01*
X80959577Y-62968216D01*
X80943999Y-62941234D01*
X80880524Y-62831290D01*
X80880518Y-62831282D01*
X80768717Y-62719481D01*
X80768709Y-62719475D01*
X80631790Y-62640426D01*
X80631786Y-62640424D01*
X80631784Y-62640423D01*
X80479057Y-62599500D01*
X80320943Y-62599500D01*
X80168216Y-62640423D01*
X80168209Y-62640426D01*
X80031290Y-62719475D01*
X80031282Y-62719481D01*
X79919481Y-62831282D01*
X79919475Y-62831290D01*
X79840426Y-62968209D01*
X79840423Y-62968216D01*
X79799500Y-63120943D01*
X77350499Y-63120943D01*
X77350499Y-62799500D01*
X77350499Y-61905143D01*
X77350499Y-61905136D01*
X77350497Y-61905117D01*
X77347586Y-61880012D01*
X77347585Y-61880010D01*
X77347585Y-61880009D01*
X77302206Y-61777235D01*
X77222765Y-61697794D01*
X77222763Y-61697793D01*
X77119992Y-61652415D01*
X77094865Y-61649500D01*
X75305143Y-61649500D01*
X75305117Y-61649502D01*
X75280012Y-61652413D01*
X75280008Y-61652415D01*
X75177235Y-61697793D01*
X75097794Y-61777234D01*
X75052415Y-61880006D01*
X75052415Y-61880008D01*
X75049500Y-61905131D01*
X75049500Y-62642871D01*
X75029815Y-62709910D01*
X74977011Y-62755665D01*
X74907853Y-62765609D01*
X74844297Y-62736584D01*
X74806523Y-62677806D01*
X74803027Y-62662269D01*
X74793085Y-62599500D01*
X74782171Y-62530591D01*
X74726211Y-62358361D01*
X74726211Y-62358360D01*
X74697740Y-62302484D01*
X74643996Y-62197006D01*
X74630396Y-62178287D01*
X74537558Y-62050505D01*
X74537554Y-62050500D01*
X74409499Y-61922445D01*
X74409494Y-61922441D01*
X74262997Y-61816006D01*
X74262996Y-61816005D01*
X74262994Y-61816004D01*
X74186906Y-61777235D01*
X74101639Y-61733788D01*
X74101636Y-61733787D01*
X73929410Y-61677829D01*
X73750551Y-61649500D01*
X73750546Y-61649500D01*
X73569454Y-61649500D01*
X73569449Y-61649500D01*
X73390589Y-61677829D01*
X73218363Y-61733787D01*
X73218360Y-61733788D01*
X73057002Y-61816006D01*
X72910505Y-61922441D01*
X72910500Y-61922445D01*
X72782445Y-62050500D01*
X72782441Y-62050505D01*
X72676006Y-62197002D01*
X72593788Y-62358360D01*
X72593787Y-62358363D01*
X72537829Y-62530589D01*
X72509500Y-62709448D01*
X70979794Y-62709448D01*
X70920178Y-58264071D01*
X87149499Y-58264071D01*
X87174497Y-58389738D01*
X87174499Y-58389744D01*
X87223533Y-58508124D01*
X87223538Y-58508133D01*
X87294723Y-58614668D01*
X87294726Y-58614672D01*
X87385327Y-58705273D01*
X87385331Y-58705276D01*
X87491866Y-58776461D01*
X87491872Y-58776464D01*
X87491873Y-58776465D01*
X87610256Y-58825501D01*
X87610260Y-58825501D01*
X87610261Y-58825502D01*
X87735928Y-58850500D01*
X87735931Y-58850500D01*
X87864071Y-58850500D01*
X87948615Y-58833682D01*
X87989744Y-58825501D01*
X88108127Y-58776465D01*
X88115712Y-58771396D01*
X88182389Y-58750520D01*
X88184601Y-58750500D01*
X101120613Y-58750500D01*
X101187652Y-58770185D01*
X101208294Y-58786819D01*
X108138783Y-65717308D01*
X108172268Y-65778631D01*
X108172719Y-65780798D01*
X108174497Y-65789736D01*
X108174499Y-65789744D01*
X108223533Y-65908124D01*
X108223538Y-65908133D01*
X108294723Y-66014668D01*
X108294726Y-66014672D01*
X108385327Y-66105273D01*
X108385331Y-66105276D01*
X108491866Y-66176461D01*
X108491872Y-66176464D01*
X108491873Y-66176465D01*
X108610256Y-66225501D01*
X108610260Y-66225501D01*
X108610261Y-66225502D01*
X108735928Y-66250500D01*
X108735931Y-66250500D01*
X108864071Y-66250500D01*
X108948615Y-66233682D01*
X108989744Y-66225501D01*
X109108127Y-66176465D01*
X109214669Y-66105276D01*
X109305276Y-66014669D01*
X109376465Y-65908127D01*
X109425501Y-65789744D01*
X109437385Y-65730000D01*
X109448828Y-65672477D01*
X109450500Y-65664071D01*
X109450500Y-65535928D01*
X109425502Y-65410261D01*
X109425501Y-65410260D01*
X109425501Y-65410256D01*
X109376465Y-65291873D01*
X109376461Y-65291866D01*
X109335123Y-65230000D01*
X110465138Y-65230000D01*
X111268012Y-65230000D01*
X111250795Y-65239940D01*
X111194940Y-65295795D01*
X111155444Y-65364204D01*
X111135000Y-65440504D01*
X111135000Y-65519496D01*
X111155444Y-65595796D01*
X111194940Y-65664205D01*
X111250795Y-65720060D01*
X111268012Y-65730000D01*
X110465138Y-65730000D01*
X110473430Y-65771690D01*
X110473430Y-65771692D01*
X110548807Y-65953671D01*
X110548814Y-65953684D01*
X110658248Y-66117462D01*
X110658251Y-66117466D01*
X110797533Y-66256748D01*
X110797537Y-66256751D01*
X110961315Y-66366185D01*
X110961328Y-66366192D01*
X111143306Y-66441569D01*
X111143318Y-66441572D01*
X111336504Y-66479999D01*
X111336508Y-66480000D01*
X111735000Y-66480000D01*
X111735000Y-65780000D01*
X112235000Y-65780000D01*
X112235000Y-66318215D01*
X112215315Y-66385254D01*
X112173002Y-66425601D01*
X112131638Y-66449483D01*
X112131632Y-66449487D01*
X112024487Y-66556632D01*
X112024485Y-66556635D01*
X111948719Y-66687863D01*
X111909500Y-66834234D01*
X111909500Y-66985765D01*
X111948719Y-67132136D01*
X111986602Y-67197750D01*
X112024485Y-67263365D01*
X112131635Y-67370515D01*
X112262865Y-67446281D01*
X112409234Y-67485500D01*
X112409236Y-67485500D01*
X112560764Y-67485500D01*
X112560766Y-67485500D01*
X112707135Y-67446281D01*
X112838365Y-67370515D01*
X112945515Y-67263365D01*
X113021281Y-67132135D01*
X113060500Y-66985766D01*
X113060500Y-66834234D01*
X113021281Y-66687865D01*
X112945515Y-66556635D01*
X112945513Y-66556633D01*
X112941451Y-66549597D01*
X112943654Y-66548325D01*
X112923041Y-66495022D01*
X112937073Y-66426576D01*
X112985882Y-66376582D01*
X112999163Y-66370129D01*
X113008682Y-66366186D01*
X113008684Y-66366185D01*
X113172462Y-66256751D01*
X113172466Y-66256748D01*
X113311748Y-66117466D01*
X113311751Y-66117462D01*
X113421185Y-65953684D01*
X113421192Y-65953671D01*
X113496569Y-65771692D01*
X113496569Y-65771690D01*
X113504862Y-65730000D01*
X112701988Y-65730000D01*
X112719205Y-65720060D01*
X112775060Y-65664205D01*
X112814556Y-65595796D01*
X112835000Y-65519496D01*
X112835000Y-65440504D01*
X112814556Y-65364204D01*
X112775060Y-65295795D01*
X112719205Y-65239940D01*
X112701988Y-65230000D01*
X113504862Y-65230000D01*
X114795138Y-65230000D01*
X115598012Y-65230000D01*
X115580795Y-65239940D01*
X115524940Y-65295795D01*
X115485444Y-65364204D01*
X115465000Y-65440504D01*
X115465000Y-65519496D01*
X115485444Y-65595796D01*
X115524940Y-65664205D01*
X115580795Y-65720060D01*
X115598012Y-65730000D01*
X114795138Y-65730000D01*
X114803430Y-65771690D01*
X114803430Y-65771692D01*
X114878807Y-65953671D01*
X114878814Y-65953684D01*
X114988248Y-66117462D01*
X114988251Y-66117466D01*
X115127533Y-66256748D01*
X115127537Y-66256751D01*
X115291315Y-66366185D01*
X115291328Y-66366192D01*
X115473306Y-66441569D01*
X115473318Y-66441572D01*
X115666504Y-66479999D01*
X115666508Y-66480000D01*
X115915000Y-66480000D01*
X115915000Y-65780000D01*
X116415000Y-65780000D01*
X116415000Y-66480000D01*
X116663492Y-66480000D01*
X116663495Y-66479999D01*
X116856681Y-66441572D01*
X116856693Y-66441569D01*
X117038671Y-66366192D01*
X117038684Y-66366185D01*
X117202462Y-66256751D01*
X117202466Y-66256748D01*
X117341748Y-66117466D01*
X117341751Y-66117462D01*
X117451185Y-65953684D01*
X117451192Y-65953671D01*
X117526569Y-65771692D01*
X117526569Y-65771690D01*
X117534862Y-65730000D01*
X116731988Y-65730000D01*
X116749205Y-65720060D01*
X116805060Y-65664205D01*
X116844556Y-65595796D01*
X116865000Y-65519496D01*
X116865000Y-65440504D01*
X116844556Y-65364204D01*
X116805060Y-65295795D01*
X116749205Y-65239940D01*
X116731988Y-65230000D01*
X117534862Y-65230000D01*
X117526569Y-65188309D01*
X117526569Y-65188307D01*
X117451192Y-65006328D01*
X117451185Y-65006315D01*
X117341751Y-64842537D01*
X117341748Y-64842533D01*
X117202466Y-64703251D01*
X117202462Y-64703248D01*
X117038684Y-64593814D01*
X117038671Y-64593807D01*
X116856693Y-64518430D01*
X116856681Y-64518427D01*
X116663495Y-64480000D01*
X116415000Y-64480000D01*
X116415000Y-65180000D01*
X115915000Y-65180000D01*
X115915000Y-64480000D01*
X115666504Y-64480000D01*
X115473318Y-64518427D01*
X115473306Y-64518430D01*
X115291328Y-64593807D01*
X115291315Y-64593814D01*
X115127537Y-64703248D01*
X115127533Y-64703251D01*
X114988251Y-64842533D01*
X114988248Y-64842537D01*
X114878814Y-65006315D01*
X114878807Y-65006328D01*
X114803430Y-65188307D01*
X114803430Y-65188309D01*
X114795138Y-65230000D01*
X113504862Y-65230000D01*
X113496569Y-65188309D01*
X113496569Y-65188307D01*
X113421192Y-65006328D01*
X113421185Y-65006315D01*
X113311751Y-64842537D01*
X113311748Y-64842533D01*
X113172466Y-64703251D01*
X113172462Y-64703248D01*
X113008684Y-64593814D01*
X113008671Y-64593807D01*
X112826693Y-64518430D01*
X112826681Y-64518427D01*
X112633495Y-64480000D01*
X112235000Y-64480000D01*
X112235000Y-65180000D01*
X111735000Y-65180000D01*
X111735000Y-64480000D01*
X111336504Y-64480000D01*
X111143318Y-64518427D01*
X111143306Y-64518430D01*
X110961328Y-64593807D01*
X110961315Y-64593814D01*
X110797537Y-64703248D01*
X110797533Y-64703251D01*
X110658251Y-64842533D01*
X110658248Y-64842537D01*
X110548814Y-65006315D01*
X110548807Y-65006328D01*
X110473430Y-65188307D01*
X110473430Y-65188309D01*
X110465138Y-65230000D01*
X109335123Y-65230000D01*
X109305276Y-65185331D01*
X109305273Y-65185327D01*
X109214672Y-65094726D01*
X109214668Y-65094723D01*
X109108133Y-65023538D01*
X109108124Y-65023533D01*
X108989744Y-64974499D01*
X108989736Y-64974497D01*
X108980798Y-64972719D01*
X108918887Y-64940334D01*
X108917308Y-64938783D01*
X101738016Y-57759491D01*
X101738015Y-57759490D01*
X101612485Y-57687016D01*
X101612482Y-57687015D01*
X101585526Y-57679791D01*
X101585526Y-57679792D01*
X101529000Y-57664646D01*
X101472475Y-57649500D01*
X101472474Y-57649500D01*
X90365324Y-57649500D01*
X90298285Y-57629815D01*
X90252530Y-57577011D01*
X90242586Y-57507853D01*
X90271611Y-57444297D01*
X90309029Y-57415015D01*
X90427554Y-57354622D01*
X90481716Y-57315270D01*
X90481717Y-57315270D01*
X89849408Y-56682962D01*
X89912993Y-56665925D01*
X90027007Y-56600099D01*
X90120099Y-56507007D01*
X90185925Y-56392993D01*
X90202962Y-56329408D01*
X90835270Y-56961717D01*
X90835270Y-56961716D01*
X90874622Y-56907554D01*
X90971095Y-56718217D01*
X90980492Y-56689295D01*
X91019928Y-56631618D01*
X91084286Y-56604419D01*
X91153133Y-56616331D01*
X91204610Y-56663574D01*
X91208908Y-56671314D01*
X91276004Y-56802995D01*
X91382441Y-56949494D01*
X91382445Y-56949499D01*
X91510500Y-57077554D01*
X91510505Y-57077558D01*
X91634565Y-57167692D01*
X91657006Y-57183996D01*
X91733094Y-57222765D01*
X91818360Y-57266211D01*
X91818363Y-57266212D01*
X91904476Y-57294191D01*
X91990591Y-57322171D01*
X92073429Y-57335291D01*
X92169449Y-57350500D01*
X92169454Y-57350500D01*
X92350551Y-57350500D01*
X92437259Y-57336765D01*
X92529409Y-57322171D01*
X92701639Y-57266211D01*
X92862994Y-57183996D01*
X93009501Y-57077553D01*
X93137553Y-56949501D01*
X93243996Y-56802994D01*
X93326211Y-56641639D01*
X93382171Y-56469409D01*
X93396422Y-56379425D01*
X93407527Y-56309321D01*
X93437456Y-56246186D01*
X93496768Y-56209255D01*
X93566630Y-56210253D01*
X93624863Y-56248863D01*
X93652473Y-56309321D01*
X93677829Y-56469410D01*
X93733787Y-56641636D01*
X93733788Y-56641639D01*
X93782641Y-56737516D01*
X93814478Y-56800000D01*
X93816006Y-56802997D01*
X93922441Y-56949494D01*
X93922445Y-56949499D01*
X94050500Y-57077554D01*
X94050505Y-57077558D01*
X94174565Y-57167692D01*
X94197006Y-57183996D01*
X94273094Y-57222765D01*
X94358360Y-57266211D01*
X94358363Y-57266212D01*
X94444476Y-57294191D01*
X94530591Y-57322171D01*
X94613429Y-57335291D01*
X94709449Y-57350500D01*
X94709454Y-57350500D01*
X94890551Y-57350500D01*
X94977259Y-57336765D01*
X95069409Y-57322171D01*
X95241639Y-57266211D01*
X95402994Y-57183996D01*
X95549501Y-57077553D01*
X95677553Y-56949501D01*
X95783996Y-56802994D01*
X95866211Y-56641639D01*
X95922171Y-56469409D01*
X95943027Y-56337729D01*
X95972956Y-56274595D01*
X96032267Y-56237663D01*
X96102130Y-56238661D01*
X96160363Y-56277271D01*
X96188477Y-56341234D01*
X96189500Y-56357127D01*
X96189500Y-57094856D01*
X96189502Y-57094882D01*
X96192413Y-57119987D01*
X96192415Y-57119991D01*
X96237793Y-57222764D01*
X96237794Y-57222765D01*
X96317235Y-57302206D01*
X96420009Y-57347585D01*
X96445135Y-57350500D01*
X98234864Y-57350499D01*
X98234879Y-57350497D01*
X98234882Y-57350497D01*
X98259987Y-57347586D01*
X98259988Y-57347585D01*
X98259991Y-57347585D01*
X98362765Y-57302206D01*
X98442206Y-57222765D01*
X98487585Y-57119991D01*
X98490500Y-57094865D01*
X98490499Y-55305136D01*
X98490499Y-55305135D01*
X98490499Y-55305131D01*
X100049500Y-55305131D01*
X100049500Y-57094856D01*
X100049502Y-57094882D01*
X100052413Y-57119987D01*
X100052415Y-57119991D01*
X100097793Y-57222764D01*
X100097794Y-57222765D01*
X100177235Y-57302206D01*
X100280009Y-57347585D01*
X100305135Y-57350500D01*
X102094864Y-57350499D01*
X102094879Y-57350497D01*
X102094882Y-57350497D01*
X102119987Y-57347586D01*
X102119988Y-57347585D01*
X102119991Y-57347585D01*
X102222765Y-57302206D01*
X102302206Y-57222765D01*
X102347585Y-57119991D01*
X102350500Y-57094865D01*
X102350499Y-56357125D01*
X102370183Y-56290089D01*
X102422987Y-56244334D01*
X102492146Y-56234390D01*
X102555702Y-56263415D01*
X102593476Y-56322193D01*
X102596972Y-56337729D01*
X102617829Y-56469410D01*
X102673787Y-56641636D01*
X102673788Y-56641639D01*
X102722641Y-56737516D01*
X102754478Y-56800000D01*
X102756006Y-56802997D01*
X102862441Y-56949494D01*
X102862445Y-56949499D01*
X102990500Y-57077554D01*
X102990505Y-57077558D01*
X103114565Y-57167692D01*
X103137006Y-57183996D01*
X103213094Y-57222765D01*
X103298360Y-57266211D01*
X103298363Y-57266212D01*
X103384476Y-57294191D01*
X103470591Y-57322171D01*
X103553429Y-57335291D01*
X103649449Y-57350500D01*
X103649454Y-57350500D01*
X103830551Y-57350500D01*
X103917259Y-57336765D01*
X104009409Y-57322171D01*
X104181639Y-57266211D01*
X104342994Y-57183996D01*
X104489501Y-57077553D01*
X104617553Y-56949501D01*
X104723996Y-56802994D01*
X104806211Y-56641639D01*
X104862171Y-56469409D01*
X104876422Y-56379425D01*
X104887527Y-56309321D01*
X104917456Y-56246186D01*
X104976768Y-56209255D01*
X105046630Y-56210253D01*
X105104863Y-56248863D01*
X105132473Y-56309321D01*
X105157829Y-56469410D01*
X105213787Y-56641636D01*
X105213788Y-56641639D01*
X105262641Y-56737516D01*
X105294478Y-56800000D01*
X105296006Y-56802997D01*
X105402441Y-56949494D01*
X105402445Y-56949499D01*
X105530500Y-57077554D01*
X105530505Y-57077558D01*
X105654565Y-57167692D01*
X105677006Y-57183996D01*
X105753094Y-57222765D01*
X105838360Y-57266211D01*
X105838363Y-57266212D01*
X105924476Y-57294191D01*
X106010591Y-57322171D01*
X106093429Y-57335291D01*
X106189449Y-57350500D01*
X106189454Y-57350500D01*
X106370551Y-57350500D01*
X106457259Y-57336765D01*
X106549409Y-57322171D01*
X106721639Y-57266211D01*
X106882994Y-57183996D01*
X107005669Y-57094868D01*
X107029495Y-57077558D01*
X107029497Y-57077555D01*
X107029501Y-57077553D01*
X107157553Y-56949501D01*
X107263996Y-56802994D01*
X107331090Y-56671314D01*
X107379065Y-56620519D01*
X107446886Y-56603724D01*
X107513021Y-56626262D01*
X107556472Y-56680977D01*
X107559506Y-56689292D01*
X107568904Y-56718217D01*
X107665375Y-56907550D01*
X107704728Y-56961716D01*
X108337037Y-56329408D01*
X108354075Y-56392993D01*
X108419901Y-56507007D01*
X108512993Y-56600099D01*
X108627007Y-56665925D01*
X108690590Y-56682962D01*
X108058282Y-57315269D01*
X108058282Y-57315270D01*
X108112449Y-57354624D01*
X108301782Y-57451095D01*
X108503870Y-57516757D01*
X108713754Y-57550000D01*
X108926246Y-57550000D01*
X109136127Y-57516757D01*
X109136130Y-57516757D01*
X109338217Y-57451095D01*
X109527554Y-57354622D01*
X109581716Y-57315270D01*
X109581717Y-57315270D01*
X108949408Y-56682962D01*
X109012993Y-56665925D01*
X109127007Y-56600099D01*
X109220099Y-56507007D01*
X109285925Y-56392993D01*
X109302962Y-56329408D01*
X109935270Y-56961717D01*
X109935270Y-56961716D01*
X109974622Y-56907554D01*
X110071095Y-56718216D01*
X110079057Y-56693713D01*
X114649500Y-56693713D01*
X114649500Y-56906287D01*
X114658279Y-56961716D01*
X114679370Y-57094882D01*
X114682754Y-57116243D01*
X114743177Y-57302206D01*
X114748444Y-57318414D01*
X114844951Y-57507820D01*
X114969890Y-57679786D01*
X115120213Y-57830109D01*
X115292179Y-57955048D01*
X115292181Y-57955049D01*
X115292184Y-57955051D01*
X115481588Y-58051557D01*
X115683757Y-58117246D01*
X115893713Y-58150500D01*
X115893714Y-58150500D01*
X116106286Y-58150500D01*
X116106287Y-58150500D01*
X116316243Y-58117246D01*
X116518412Y-58051557D01*
X116707816Y-57955051D01*
X116794774Y-57891873D01*
X116879786Y-57830109D01*
X116879788Y-57830106D01*
X116879792Y-57830104D01*
X117030104Y-57679792D01*
X117030106Y-57679788D01*
X117030109Y-57679786D01*
X117155048Y-57507820D01*
X117155047Y-57507820D01*
X117155051Y-57507816D01*
X117251557Y-57318412D01*
X117317246Y-57116243D01*
X117350500Y-56906287D01*
X117350500Y-56693713D01*
X117317246Y-56483757D01*
X117251557Y-56281588D01*
X117155051Y-56092184D01*
X117155049Y-56092181D01*
X117155048Y-56092179D01*
X117030109Y-55920213D01*
X116879786Y-55769890D01*
X116707820Y-55644951D01*
X116518414Y-55548444D01*
X116518413Y-55548443D01*
X116518412Y-55548443D01*
X116316243Y-55482754D01*
X116316241Y-55482753D01*
X116316240Y-55482753D01*
X116154957Y-55457208D01*
X116106287Y-55449500D01*
X115893713Y-55449500D01*
X115845042Y-55457208D01*
X115683760Y-55482753D01*
X115481585Y-55548444D01*
X115292179Y-55644951D01*
X115120213Y-55769890D01*
X114969890Y-55920213D01*
X114844951Y-56092179D01*
X114748444Y-56281585D01*
X114682753Y-56483760D01*
X114651517Y-56680977D01*
X114649500Y-56693713D01*
X110079057Y-56693713D01*
X110093091Y-56650523D01*
X110136757Y-56516130D01*
X110136757Y-56516127D01*
X110170000Y-56306246D01*
X110170000Y-56093753D01*
X110136757Y-55883872D01*
X110136757Y-55883869D01*
X110071095Y-55681782D01*
X109974624Y-55492449D01*
X109935270Y-55438282D01*
X109935269Y-55438282D01*
X109302962Y-56070590D01*
X109285925Y-56007007D01*
X109220099Y-55892993D01*
X109127007Y-55799901D01*
X109012993Y-55734075D01*
X108949409Y-55717037D01*
X109581716Y-55084728D01*
X109527550Y-55045375D01*
X109338217Y-54948904D01*
X109136129Y-54883242D01*
X108926246Y-54850000D01*
X108713754Y-54850000D01*
X108503872Y-54883242D01*
X108503869Y-54883242D01*
X108301782Y-54948904D01*
X108112439Y-55045380D01*
X108058282Y-55084727D01*
X108058282Y-55084728D01*
X108690591Y-55717037D01*
X108627007Y-55734075D01*
X108512993Y-55799901D01*
X108419901Y-55892993D01*
X108354075Y-56007007D01*
X108337037Y-56070591D01*
X107704728Y-55438282D01*
X107704727Y-55438282D01*
X107665380Y-55492439D01*
X107568905Y-55681781D01*
X107559506Y-55710708D01*
X107520068Y-55768383D01*
X107455709Y-55795581D01*
X107386862Y-55783666D01*
X107335387Y-55736421D01*
X107331090Y-55728684D01*
X107288424Y-55644949D01*
X107263996Y-55597006D01*
X107228713Y-55548443D01*
X107157558Y-55450505D01*
X107157554Y-55450500D01*
X107029499Y-55322445D01*
X107029494Y-55322441D01*
X106905432Y-55232305D01*
X106882996Y-55216005D01*
X106721639Y-55133788D01*
X106721636Y-55133787D01*
X106549410Y-55077829D01*
X106370551Y-55049500D01*
X106370546Y-55049500D01*
X106189454Y-55049500D01*
X106189449Y-55049500D01*
X106010589Y-55077829D01*
X105838363Y-55133787D01*
X105838360Y-55133788D01*
X105677002Y-55216006D01*
X105530505Y-55322441D01*
X105530500Y-55322445D01*
X105402445Y-55450500D01*
X105402441Y-55450505D01*
X105296006Y-55597002D01*
X105213788Y-55758360D01*
X105213787Y-55758363D01*
X105157829Y-55930589D01*
X105132473Y-56090678D01*
X105102544Y-56153813D01*
X105043232Y-56190744D01*
X104973369Y-56189746D01*
X104915137Y-56151136D01*
X104887527Y-56090678D01*
X104864995Y-55948422D01*
X104862171Y-55930591D01*
X104818530Y-55796275D01*
X104806212Y-55758363D01*
X104806211Y-55758360D01*
X104748424Y-55644949D01*
X104723996Y-55597006D01*
X104688713Y-55548443D01*
X104617558Y-55450505D01*
X104617554Y-55450500D01*
X104489499Y-55322445D01*
X104489494Y-55322441D01*
X104342997Y-55216006D01*
X104342996Y-55216005D01*
X104342994Y-55216004D01*
X104266906Y-55177235D01*
X104181639Y-55133788D01*
X104181636Y-55133787D01*
X104009410Y-55077829D01*
X103830551Y-55049500D01*
X103830546Y-55049500D01*
X103649454Y-55049500D01*
X103649449Y-55049500D01*
X103470589Y-55077829D01*
X103298363Y-55133787D01*
X103298360Y-55133788D01*
X103137002Y-55216006D01*
X102990505Y-55322441D01*
X102990500Y-55322445D01*
X102862445Y-55450500D01*
X102862441Y-55450505D01*
X102756006Y-55597002D01*
X102673788Y-55758360D01*
X102673787Y-55758363D01*
X102617829Y-55930589D01*
X102596972Y-56062271D01*
X102567042Y-56125405D01*
X102507731Y-56162336D01*
X102437868Y-56161338D01*
X102379636Y-56122728D01*
X102351522Y-56058764D01*
X102350499Y-56042872D01*
X102350499Y-55305143D01*
X102350499Y-55305136D01*
X102350082Y-55301538D01*
X102347586Y-55280012D01*
X102347585Y-55280010D01*
X102347585Y-55280009D01*
X102302206Y-55177235D01*
X102222765Y-55097794D01*
X102222763Y-55097793D01*
X102119992Y-55052415D01*
X102094865Y-55049500D01*
X100305143Y-55049500D01*
X100305117Y-55049502D01*
X100280012Y-55052413D01*
X100280008Y-55052415D01*
X100177235Y-55097793D01*
X100097794Y-55177234D01*
X100052415Y-55280006D01*
X100052415Y-55280008D01*
X100049500Y-55305131D01*
X98490499Y-55305131D01*
X98490499Y-55305130D01*
X98487586Y-55280012D01*
X98487585Y-55280010D01*
X98487585Y-55280009D01*
X98442206Y-55177235D01*
X98362765Y-55097794D01*
X98362763Y-55097793D01*
X98259992Y-55052415D01*
X98234865Y-55049500D01*
X96445143Y-55049500D01*
X96445117Y-55049502D01*
X96420012Y-55052413D01*
X96420008Y-55052415D01*
X96317235Y-55097793D01*
X96237794Y-55177234D01*
X96192415Y-55280006D01*
X96192415Y-55280008D01*
X96189500Y-55305131D01*
X96189500Y-56042871D01*
X96169815Y-56109910D01*
X96117011Y-56155665D01*
X96047853Y-56165609D01*
X95984297Y-56136584D01*
X95946523Y-56077806D01*
X95943027Y-56062269D01*
X95924995Y-55948422D01*
X95922171Y-55930591D01*
X95878530Y-55796275D01*
X95866212Y-55758363D01*
X95866211Y-55758360D01*
X95808424Y-55644949D01*
X95783996Y-55597006D01*
X95748713Y-55548443D01*
X95677558Y-55450505D01*
X95677554Y-55450500D01*
X95549499Y-55322445D01*
X95549494Y-55322441D01*
X95402997Y-55216006D01*
X95402996Y-55216005D01*
X95402994Y-55216004D01*
X95326906Y-55177235D01*
X95241639Y-55133788D01*
X95241636Y-55133787D01*
X95069410Y-55077829D01*
X94890551Y-55049500D01*
X94890546Y-55049500D01*
X94709454Y-55049500D01*
X94709449Y-55049500D01*
X94530589Y-55077829D01*
X94358363Y-55133787D01*
X94358360Y-55133788D01*
X94197002Y-55216006D01*
X94050505Y-55322441D01*
X94050500Y-55322445D01*
X93922445Y-55450500D01*
X93922441Y-55450505D01*
X93816006Y-55597002D01*
X93733788Y-55758360D01*
X93733787Y-55758363D01*
X93677829Y-55930589D01*
X93652473Y-56090678D01*
X93622544Y-56153813D01*
X93563232Y-56190744D01*
X93493369Y-56189746D01*
X93435137Y-56151136D01*
X93407527Y-56090678D01*
X93384995Y-55948422D01*
X93382171Y-55930591D01*
X93338530Y-55796275D01*
X93326212Y-55758363D01*
X93326211Y-55758360D01*
X93268424Y-55644949D01*
X93243996Y-55597006D01*
X93208713Y-55548443D01*
X93137558Y-55450505D01*
X93137554Y-55450500D01*
X93009499Y-55322445D01*
X93009494Y-55322441D01*
X92862997Y-55216006D01*
X92862996Y-55216005D01*
X92862994Y-55216004D01*
X92786906Y-55177235D01*
X92701639Y-55133788D01*
X92701636Y-55133787D01*
X92529410Y-55077829D01*
X92350551Y-55049500D01*
X92350546Y-55049500D01*
X92169454Y-55049500D01*
X92169449Y-55049500D01*
X91990589Y-55077829D01*
X91818363Y-55133787D01*
X91818360Y-55133788D01*
X91657002Y-55216006D01*
X91510505Y-55322441D01*
X91510500Y-55322445D01*
X91382445Y-55450500D01*
X91382441Y-55450505D01*
X91276004Y-55597004D01*
X91208908Y-55728685D01*
X91160933Y-55779480D01*
X91093112Y-55796275D01*
X91026977Y-55773737D01*
X90983527Y-55719021D01*
X90980492Y-55710705D01*
X90971094Y-55681780D01*
X90874624Y-55492449D01*
X90835270Y-55438282D01*
X90202962Y-56070590D01*
X90185925Y-56007007D01*
X90120099Y-55892993D01*
X90027007Y-55799901D01*
X89912993Y-55734075D01*
X89849409Y-55717037D01*
X90481716Y-55084728D01*
X90427550Y-55045375D01*
X90238217Y-54948904D01*
X90036129Y-54883242D01*
X89826246Y-54850000D01*
X89613754Y-54850000D01*
X89403872Y-54883242D01*
X89403869Y-54883242D01*
X89201782Y-54948904D01*
X89012439Y-55045380D01*
X88958282Y-55084727D01*
X88958282Y-55084728D01*
X89590591Y-55717037D01*
X89527007Y-55734075D01*
X89412993Y-55799901D01*
X89319901Y-55892993D01*
X89254075Y-56007007D01*
X89237037Y-56070591D01*
X88604728Y-55438282D01*
X88604727Y-55438282D01*
X88565380Y-55492439D01*
X88468904Y-55681782D01*
X88403242Y-55883869D01*
X88403242Y-55883872D01*
X88370000Y-56093753D01*
X88370000Y-56306246D01*
X88403242Y-56516127D01*
X88403242Y-56516130D01*
X88468904Y-56718217D01*
X88565375Y-56907550D01*
X88604728Y-56961716D01*
X89237037Y-56329408D01*
X89254075Y-56392993D01*
X89319901Y-56507007D01*
X89412993Y-56600099D01*
X89527007Y-56665925D01*
X89590590Y-56682962D01*
X88958282Y-57315269D01*
X88958282Y-57315270D01*
X89012450Y-57354624D01*
X89130971Y-57415015D01*
X89181767Y-57462990D01*
X89198562Y-57530811D01*
X89176024Y-57596946D01*
X89121309Y-57640397D01*
X89074676Y-57649500D01*
X88184601Y-57649500D01*
X88117562Y-57629815D01*
X88115747Y-57628626D01*
X88108127Y-57623535D01*
X88108124Y-57623533D01*
X88108123Y-57623533D01*
X87989744Y-57574499D01*
X87989738Y-57574497D01*
X87864071Y-57549500D01*
X87864069Y-57549500D01*
X87735931Y-57549500D01*
X87735929Y-57549500D01*
X87610261Y-57574497D01*
X87610255Y-57574499D01*
X87491875Y-57623533D01*
X87491866Y-57623538D01*
X87385331Y-57694723D01*
X87385327Y-57694726D01*
X87294726Y-57785327D01*
X87294723Y-57785331D01*
X87223538Y-57891866D01*
X87223533Y-57891875D01*
X87174499Y-58010255D01*
X87174497Y-58010261D01*
X87149500Y-58135928D01*
X87149500Y-58135931D01*
X87149500Y-58264069D01*
X87149500Y-58264071D01*
X87149499Y-58264071D01*
X70920178Y-58264071D01*
X70900597Y-56803964D01*
X70900812Y-56794826D01*
X70905447Y-56718217D01*
X70906929Y-56693713D01*
X72049500Y-56693713D01*
X72049500Y-56906287D01*
X72058279Y-56961716D01*
X72079370Y-57094882D01*
X72082754Y-57116243D01*
X72143177Y-57302206D01*
X72148444Y-57318414D01*
X72244951Y-57507820D01*
X72369890Y-57679786D01*
X72520213Y-57830109D01*
X72692179Y-57955048D01*
X72692181Y-57955049D01*
X72692184Y-57955051D01*
X72881588Y-58051557D01*
X73083757Y-58117246D01*
X73293713Y-58150500D01*
X73293714Y-58150500D01*
X73506286Y-58150500D01*
X73506287Y-58150500D01*
X73716243Y-58117246D01*
X73918412Y-58051557D01*
X74107816Y-57955051D01*
X74194774Y-57891873D01*
X74279786Y-57830109D01*
X74279788Y-57830106D01*
X74279792Y-57830104D01*
X74430104Y-57679792D01*
X74430106Y-57679788D01*
X74430109Y-57679786D01*
X74555048Y-57507820D01*
X74555047Y-57507820D01*
X74555051Y-57507816D01*
X74651557Y-57318412D01*
X74717246Y-57116243D01*
X74750500Y-56906287D01*
X74750500Y-56693713D01*
X74717246Y-56483757D01*
X74651557Y-56281588D01*
X74555051Y-56092184D01*
X74555049Y-56092181D01*
X74555048Y-56092179D01*
X74430109Y-55920213D01*
X74279786Y-55769890D01*
X74107820Y-55644951D01*
X73918414Y-55548444D01*
X73918413Y-55548443D01*
X73918412Y-55548443D01*
X73716243Y-55482754D01*
X73716241Y-55482753D01*
X73716240Y-55482753D01*
X73554957Y-55457208D01*
X73506287Y-55449500D01*
X73293713Y-55449500D01*
X73245042Y-55457208D01*
X73083760Y-55482753D01*
X72881585Y-55548444D01*
X72692179Y-55644951D01*
X72520213Y-55769890D01*
X72369890Y-55920213D01*
X72244951Y-56092179D01*
X72148444Y-56281585D01*
X72082753Y-56483760D01*
X72051517Y-56680977D01*
X72049500Y-56693713D01*
X70906929Y-56693713D01*
X70918271Y-56506202D01*
X70920076Y-56491340D01*
X70944672Y-56357128D01*
X70971780Y-56209197D01*
X70975364Y-56194663D01*
X71060696Y-55920822D01*
X71065998Y-55906841D01*
X71183731Y-55645249D01*
X71190676Y-55632016D01*
X71339080Y-55386526D01*
X71347567Y-55374230D01*
X71401703Y-55305131D01*
X77049500Y-55305131D01*
X77049500Y-57094856D01*
X77049502Y-57094882D01*
X77052413Y-57119987D01*
X77052415Y-57119991D01*
X77097793Y-57222764D01*
X77097794Y-57222765D01*
X77177235Y-57302206D01*
X77280009Y-57347585D01*
X77305135Y-57350500D01*
X79094864Y-57350499D01*
X79094879Y-57350497D01*
X79094882Y-57350497D01*
X79119987Y-57347586D01*
X79119988Y-57347585D01*
X79119991Y-57347585D01*
X79222765Y-57302206D01*
X79302206Y-57222765D01*
X79347585Y-57119991D01*
X79350500Y-57094865D01*
X79350499Y-56357125D01*
X79370183Y-56290089D01*
X79422987Y-56244334D01*
X79492146Y-56234390D01*
X79555702Y-56263415D01*
X79593476Y-56322193D01*
X79596972Y-56337729D01*
X79617829Y-56469410D01*
X79673787Y-56641636D01*
X79673788Y-56641639D01*
X79722641Y-56737516D01*
X79754478Y-56800000D01*
X79756006Y-56802997D01*
X79862441Y-56949494D01*
X79862445Y-56949499D01*
X79990500Y-57077554D01*
X79990505Y-57077558D01*
X80114565Y-57167692D01*
X80137006Y-57183996D01*
X80213094Y-57222765D01*
X80298360Y-57266211D01*
X80298363Y-57266212D01*
X80384476Y-57294191D01*
X80470591Y-57322171D01*
X80553429Y-57335291D01*
X80649449Y-57350500D01*
X80649454Y-57350500D01*
X80830551Y-57350500D01*
X80917259Y-57336765D01*
X81009409Y-57322171D01*
X81181639Y-57266211D01*
X81342994Y-57183996D01*
X81489501Y-57077553D01*
X81617553Y-56949501D01*
X81723996Y-56802994D01*
X81806211Y-56641639D01*
X81862171Y-56469409D01*
X81876422Y-56379425D01*
X81887527Y-56309321D01*
X81917456Y-56246186D01*
X81976768Y-56209255D01*
X82046630Y-56210253D01*
X82104863Y-56248863D01*
X82132473Y-56309321D01*
X82157829Y-56469410D01*
X82213787Y-56641636D01*
X82213788Y-56641639D01*
X82262641Y-56737516D01*
X82294478Y-56800000D01*
X82296006Y-56802997D01*
X82402441Y-56949494D01*
X82402445Y-56949499D01*
X82530500Y-57077554D01*
X82530505Y-57077558D01*
X82654565Y-57167692D01*
X82677006Y-57183996D01*
X82753094Y-57222765D01*
X82838360Y-57266211D01*
X82838363Y-57266212D01*
X82924476Y-57294191D01*
X83010591Y-57322171D01*
X83093429Y-57335291D01*
X83189449Y-57350500D01*
X83189454Y-57350500D01*
X83370551Y-57350500D01*
X83457259Y-57336765D01*
X83549409Y-57322171D01*
X83721639Y-57266211D01*
X83882994Y-57183996D01*
X84005669Y-57094868D01*
X84029495Y-57077558D01*
X84029497Y-57077555D01*
X84029501Y-57077553D01*
X84157553Y-56949501D01*
X84263996Y-56802994D01*
X84331090Y-56671314D01*
X84379065Y-56620519D01*
X84446886Y-56603724D01*
X84513021Y-56626262D01*
X84556472Y-56680977D01*
X84559506Y-56689292D01*
X84568904Y-56718217D01*
X84665375Y-56907550D01*
X84704728Y-56961716D01*
X85337037Y-56329408D01*
X85354075Y-56392993D01*
X85419901Y-56507007D01*
X85512993Y-56600099D01*
X85627007Y-56665925D01*
X85690590Y-56682962D01*
X85058282Y-57315269D01*
X85058282Y-57315270D01*
X85112449Y-57354624D01*
X85301782Y-57451095D01*
X85503870Y-57516757D01*
X85713754Y-57550000D01*
X85926246Y-57550000D01*
X86136127Y-57516757D01*
X86136130Y-57516757D01*
X86338217Y-57451095D01*
X86527554Y-57354622D01*
X86581716Y-57315270D01*
X86581717Y-57315270D01*
X85949408Y-56682962D01*
X86012993Y-56665925D01*
X86127007Y-56600099D01*
X86220099Y-56507007D01*
X86285925Y-56392993D01*
X86302962Y-56329409D01*
X86935270Y-56961717D01*
X86935270Y-56961716D01*
X86974622Y-56907554D01*
X87071095Y-56718217D01*
X87136757Y-56516130D01*
X87136757Y-56516127D01*
X87170000Y-56306246D01*
X87170000Y-56093753D01*
X87136757Y-55883872D01*
X87136757Y-55883869D01*
X87071095Y-55681782D01*
X86974624Y-55492449D01*
X86935270Y-55438282D01*
X86935269Y-55438282D01*
X86302962Y-56070590D01*
X86285925Y-56007007D01*
X86220099Y-55892993D01*
X86127007Y-55799901D01*
X86012993Y-55734075D01*
X85949409Y-55717037D01*
X86581716Y-55084728D01*
X86527550Y-55045375D01*
X86338217Y-54948904D01*
X86136129Y-54883242D01*
X85926246Y-54850000D01*
X85713754Y-54850000D01*
X85503872Y-54883242D01*
X85503869Y-54883242D01*
X85301782Y-54948904D01*
X85112439Y-55045380D01*
X85058282Y-55084727D01*
X85058282Y-55084728D01*
X85690591Y-55717037D01*
X85627007Y-55734075D01*
X85512993Y-55799901D01*
X85419901Y-55892993D01*
X85354075Y-56007007D01*
X85337037Y-56070591D01*
X84704728Y-55438282D01*
X84704727Y-55438282D01*
X84665380Y-55492439D01*
X84568905Y-55681781D01*
X84559506Y-55710708D01*
X84520068Y-55768383D01*
X84455709Y-55795581D01*
X84386862Y-55783666D01*
X84335387Y-55736421D01*
X84331090Y-55728684D01*
X84288424Y-55644949D01*
X84263996Y-55597006D01*
X84228713Y-55548443D01*
X84157558Y-55450505D01*
X84157554Y-55450500D01*
X84029499Y-55322445D01*
X84029494Y-55322441D01*
X83905432Y-55232305D01*
X83882996Y-55216005D01*
X83721639Y-55133788D01*
X83721636Y-55133787D01*
X83549410Y-55077829D01*
X83370551Y-55049500D01*
X83370546Y-55049500D01*
X83189454Y-55049500D01*
X83189449Y-55049500D01*
X83010589Y-55077829D01*
X82838363Y-55133787D01*
X82838360Y-55133788D01*
X82677002Y-55216006D01*
X82530505Y-55322441D01*
X82530500Y-55322445D01*
X82402445Y-55450500D01*
X82402441Y-55450505D01*
X82296006Y-55597002D01*
X82213788Y-55758360D01*
X82213787Y-55758363D01*
X82157829Y-55930589D01*
X82132473Y-56090678D01*
X82102544Y-56153813D01*
X82043232Y-56190744D01*
X81973369Y-56189746D01*
X81915137Y-56151136D01*
X81887527Y-56090678D01*
X81864995Y-55948422D01*
X81862171Y-55930591D01*
X81818530Y-55796275D01*
X81806212Y-55758363D01*
X81806211Y-55758360D01*
X81748424Y-55644949D01*
X81723996Y-55597006D01*
X81688713Y-55548443D01*
X81617558Y-55450505D01*
X81617554Y-55450500D01*
X81489499Y-55322445D01*
X81489494Y-55322441D01*
X81342997Y-55216006D01*
X81342996Y-55216005D01*
X81342994Y-55216004D01*
X81266906Y-55177235D01*
X81181639Y-55133788D01*
X81181636Y-55133787D01*
X81009410Y-55077829D01*
X80830551Y-55049500D01*
X80830546Y-55049500D01*
X80649454Y-55049500D01*
X80649449Y-55049500D01*
X80470589Y-55077829D01*
X80298363Y-55133787D01*
X80298360Y-55133788D01*
X80137002Y-55216006D01*
X79990505Y-55322441D01*
X79990500Y-55322445D01*
X79862445Y-55450500D01*
X79862441Y-55450505D01*
X79756006Y-55597002D01*
X79673788Y-55758360D01*
X79673787Y-55758363D01*
X79617829Y-55930589D01*
X79596972Y-56062271D01*
X79567042Y-56125405D01*
X79507731Y-56162336D01*
X79437868Y-56161338D01*
X79379636Y-56122728D01*
X79351522Y-56058764D01*
X79350499Y-56042872D01*
X79350499Y-55305143D01*
X79350499Y-55305136D01*
X79350082Y-55301538D01*
X79347586Y-55280012D01*
X79347585Y-55280010D01*
X79347585Y-55280009D01*
X79302206Y-55177235D01*
X79222765Y-55097794D01*
X79222763Y-55097793D01*
X79119992Y-55052415D01*
X79094865Y-55049500D01*
X77305143Y-55049500D01*
X77305117Y-55049502D01*
X77280012Y-55052413D01*
X77280008Y-55052415D01*
X77177235Y-55097793D01*
X77097794Y-55177234D01*
X77052415Y-55280006D01*
X77052415Y-55280008D01*
X77049500Y-55305131D01*
X71401703Y-55305131D01*
X71524480Y-55148417D01*
X71534395Y-55137226D01*
X71737226Y-54934395D01*
X71748417Y-54924480D01*
X71974230Y-54747567D01*
X71986526Y-54739080D01*
X72232016Y-54590676D01*
X72245249Y-54583731D01*
X72506841Y-54465998D01*
X72520822Y-54460696D01*
X72794668Y-54375362D01*
X72809197Y-54371780D01*
X73091344Y-54320075D01*
X73106201Y-54318271D01*
X73396264Y-54300726D01*
X73403751Y-54300500D01*
X73465892Y-54300500D01*
X115934108Y-54300500D01*
X115996249Y-54300500D01*
X116003736Y-54300726D01*
G37*
%TD.AperFunction*%
%TD*%
M02*
